<svg width="20" height="20" viewBox="0 0 20 20" fill="none" xmlns="http://www.w3.org/2000/svg">
<path d="M6.7069 18.5C6.7069 19.0523 7.15461 19.5 7.7069 19.5H12.3296C12.8819 19.5 13.3296 19.0523 13.3296 18.5V13.2605H18.5C19.0523 13.2605 19.5 12.8128 19.5 12.2605V7.73949C19.5 7.18721 19.0523 6.73949 18.5 6.73949H13.3296V1.5C13.3296 0.947716 12.8819 0.5 12.3296 0.5H7.7069C7.15461 0.5 6.7069 0.947716 6.7069 1.5V6.73949H1.5C0.947716 6.73949 0.5 7.18721 0.5 7.73949V12.2605C0.5 12.8128 0.947716 13.2605 1.5 13.2605H6.7069V18.5Z" stroke="#EFA130"/>
</svg>
