<svg width="69" height="69" viewBox="0 0 69 69" fill="none" xmlns="http://www.w3.org/2000/svg">
<circle cx="34.5" cy="34.5" r="34.5" fill="#7AC3ED"/>
<path d="M24.3108 44.2059L28.6279 43.1673C29.28 43.004 30.0367 43.3819 30.2978 44.0014L32.0603 48.0769C32.5889 48.7811 33.6259 48.8589 34.2648 48.2326L35.7055 46.7842C36.0576 46.4384 36.2204 45.7535 36.0637 45.284L34.588 40.8301C34.4705 40.5106 34.5094 40.0084 34.6593 39.7083L36.5166 35.9902C36.7903 35.4422 37.3251 35.3833 37.7296 35.8462L42.7537 41.8118C43.5433 42.7441 44.6324 42.6198 45.1798 41.5239L46.0204 39.8409C46.4571 38.9668 46.3065 37.6364 45.6671 36.8932L39.9448 30.1061C39.7817 29.9105 39.7359 29.5453 39.8532 29.3105L41.8082 25.3966C42.4208 24.1703 42.244 22.2725 41.4283 21.1641C41.1347 20.7729 40.6781 20.5448 40.1889 20.545C38.8128 20.5585 37.1827 21.5701 36.5702 22.7964L34.6151 26.7103C34.4978 26.9451 34.1783 27.1279 33.924 27.1149L25.0736 26.6227C24.1018 26.5448 22.9477 27.2235 22.5111 28.0976L21.6704 29.7806C21.123 30.8765 21.6777 31.8219 22.8973 31.8932L30.6846 32.3271C31.2912 32.353 31.5718 32.8355 31.2981 33.3834L29.4408 37.1016C29.2909 37.4017 28.9128 37.7344 28.5998 37.8389L24.1524 39.3342C23.6829 39.4909 23.2396 40.0193 23.1681 40.5215L22.8754 42.5434C22.7322 43.4174 23.4108 44.2128 24.3108 44.2059Z" stroke="white" stroke-width="2" stroke-linecap="round" stroke-linejoin="round"/>
</svg>
