<svg width="21" height="22" viewBox="0 0 21 22" fill="none" xmlns="http://www.w3.org/2000/svg">
<path d="M0.875 20.0186H20.125" stroke="#3769B2" stroke-width="1.5" stroke-miterlimit="10" stroke-linecap="round" stroke-linejoin="round"/>
<path d="M17.3074 20.0275V16.125" stroke="#3769B2" stroke-width="1.5" stroke-miterlimit="10" stroke-linecap="round" stroke-linejoin="round"/>
<path d="M17.325 10.2979C16.2575 10.2979 15.4 11.1554 15.4 12.2229V14.2091C15.4 15.2766 16.2575 16.1341 17.325 16.1341C18.3925 16.1341 19.25 15.2766 19.25 14.2091V12.2229C19.25 11.1554 18.3925 10.2979 17.325 10.2979Z" stroke="#3769B2" stroke-width="1.5" stroke-miterlimit="10" stroke-linecap="round" stroke-linejoin="round"/>
<path d="M1.83752 20.0186V6.04486C1.83752 4.28611 2.71257 3.40234 4.45382 3.40234H9.90505C11.6463 3.40234 12.5125 4.28611 12.5125 6.04486V20.0186" stroke="#3769B2" stroke-width="1.5" stroke-miterlimit="10" stroke-linecap="round" stroke-linejoin="round"/>
<path d="M5.07507 7.9873H9.40633" stroke="#3769B2" stroke-width="1.5" stroke-miterlimit="10" stroke-linecap="round" stroke-linejoin="round"/>
<path d="M5.07507 11.2686H9.40633" stroke="#3769B2" stroke-width="1.5" stroke-miterlimit="10" stroke-linecap="round" stroke-linejoin="round"/>
<path d="M7.21875 20.0186V16.7373" stroke="#3769B2" stroke-width="1.5" stroke-miterlimit="10" stroke-linecap="round" stroke-linejoin="round"/>
</svg>
