<svg width="22" height="23" viewBox="0 0 22 23" fill="none" xmlns="http://www.w3.org/2000/svg">
<path d="M1.8335 20.9346H20.1668" stroke="#3769B2" stroke-width="1.5" stroke-miterlimit="10" stroke-linecap="round" stroke-linejoin="round"/>
<path d="M13.7592 20.9259L2.75918 20.9443L2.75 7.24926C2.75 6.63509 3.06168 6.06673 3.56585 5.72756L7.23251 3.28008C7.84668 2.86758 8.65332 2.86758 9.26749 3.28008L12.9342 5.72756C13.4475 6.06673 13.75 6.63509 13.75 7.24926L13.7592 20.9259Z" stroke="#3769B2" stroke-width="1.5" stroke-miterlimit="10" stroke-linecap="round" stroke-linejoin="round"/>
<path d="M18.3149 20.9444V17.2686" stroke="#3769B2" stroke-width="1.5" stroke-miterlimit="10" stroke-linecap="round" stroke-linejoin="round"/>
<path d="M18.3333 11.7686C17.325 11.7686 16.5 12.5936 16.5 13.6019V15.4352C16.5 16.4436 17.325 17.2686 18.3333 17.2686C19.3417 17.2686 20.1667 16.4436 20.1667 15.4352V13.6019C20.1667 12.5936 19.3417 11.7686 18.3333 11.7686Z" stroke="#3769B2" stroke-width="1.5" stroke-miterlimit="10" stroke-linecap="round" stroke-linejoin="round"/>
<path d="M2.75 13.6025H13.75" stroke="#3769B2" stroke-width="1.5" stroke-miterlimit="10" stroke-linecap="round" stroke-linejoin="round"/>
<path d="M8.25 20.9346V17.4971" stroke="#3769B2" stroke-width="1.5" stroke-miterlimit="10" stroke-linecap="round" stroke-linejoin="round"/>
<path d="M8.25 10.3936C9.00939 10.3936 9.625 9.77795 9.625 9.01855C9.625 8.25916 9.00939 7.64355 8.25 7.64355C7.49061 7.64355 6.875 8.25916 6.875 9.01855C6.875 9.77795 7.49061 10.3936 8.25 10.3936Z" stroke="#3769B2" stroke-width="1.5" stroke-miterlimit="10" stroke-linecap="round" stroke-linejoin="round"/>
</svg>
