<svg width="25" height="22" viewBox="0 0 25 22" fill="none" xmlns="http://www.w3.org/2000/svg">
<path fill-rule="evenodd" clip-rule="evenodd" d="M6.10057 21.3708H18.3017C21.962 21.3708 24.4023 19.5407 24.4023 15.2703V6.72947C24.4023 2.45908 21.962 0.628906 18.3017 0.628906H6.10057C2.44023 0.628906 0 2.45908 0 6.72947V15.2703C0 19.5407 2.44023 21.3708 6.10057 21.3708ZM18.9259 8.12101C19.3575 7.77633 19.4279 7.1471 19.0832 6.71557C18.7385 6.28403 18.1093 6.21362 17.6778 6.5583L13.86 9.60759L13.8595 9.608C12.9676 10.3176 11.4236 10.3177 10.5314 9.60847L10.5303 9.60759L6.72601 6.55927C6.29502 6.21392 5.66567 6.28335 5.32033 6.71435C4.97498 7.14534 5.04441 7.77468 5.4754 8.12003L9.28215 11.1703L9.28462 11.1723C10.9059 12.463 13.4845 12.463 15.1057 11.1723L15.107 11.1713L18.9259 8.12101Z" fill="white"/>
</svg>
