<svg width="69" height="69" viewBox="0 0 69 69" fill="none" xmlns="http://www.w3.org/2000/svg">
<circle cx="34.5" cy="34.5" r="34.5" fill="#F9BC3B"/>
<path d="M21.3766 29.0685L20.4015 28.8467L20.4013 28.8478L21.3766 29.0685ZM47.378 29.0841L46.4026 29.3048L46.4026 29.3048L47.378 29.0841ZM28.7768 47.7628L28.0828 48.4829L28.0841 48.4841L28.7768 47.7628ZM39.9623 47.7628L39.2697 47.0415L39.2678 47.0433L39.9623 47.7628ZM22.3517 29.2904C23.7573 23.1116 29.0201 19.9964 34.3824 20C39.7449 20.0036 45.0042 23.1261 46.4026 29.3048L48.3533 28.8633C46.711 21.6069 40.4977 18.0041 34.3838 18C28.2697 17.9959 22.0522 21.5904 20.4015 28.8467L22.3517 29.2904ZM29.4707 47.0428C25.2392 42.9646 20.6914 36.6244 22.3519 29.2893L20.4013 28.8478C18.4936 37.2748 23.7506 44.3076 28.0828 48.4829L29.4707 47.0428ZM39.2678 47.0433C36.538 49.6781 32.2172 49.6805 29.4694 47.0416L28.0841 48.4841C31.6039 51.8645 37.15 51.867 40.6568 48.4824L39.2678 47.0433ZM46.4026 29.3048C48.0629 36.639 43.5163 42.9636 39.2697 47.0415L40.6549 48.4841C45.003 44.3087 50.2612 37.2912 48.3533 28.8633L46.4026 29.3048ZM34.3769 37.7315C37.6024 37.7315 40.2172 35.1167 40.2172 31.8912H38.2172C38.2172 34.0122 36.4978 35.7315 34.3769 35.7315V37.7315ZM28.5365 31.8912C28.5365 35.1167 31.1513 37.7315 34.3769 37.7315V35.7315C32.2559 35.7315 30.5365 34.0122 30.5365 31.8912H28.5365ZM34.3769 26.0508C31.1513 26.0508 28.5365 28.6657 28.5365 31.8912H30.5365C30.5365 29.7702 32.2559 28.0508 34.3769 28.0508V26.0508ZM40.2172 31.8912C40.2172 28.6657 37.6024 26.0508 34.3769 26.0508V28.0508C36.4978 28.0508 38.2172 29.7702 38.2172 31.8912H40.2172Z" fill="white"/>
</svg>
