<svg width="22" height="21" viewBox="0 0 22 21" fill="none" xmlns="http://www.w3.org/2000/svg">
<path d="M12.6501 1.2493L12.771 1.36263L21.8041 10.2369L20.8353 11.2223L19.5915 10.0005L19.5921 19.3674C19.5921 20.0958 19.0283 20.6928 18.3131 20.7454L18.2101 20.7495H4.38946C3.66112 20.7495 3.06407 20.1856 3.01086 19.4704L3.0074 19.3674L3.00671 10.0012L1.76424 11.2223L0.79541 10.2369L9.8189 1.37161C10.588 0.586602 11.8284 0.543068 12.6501 1.2493ZM10.863 2.28861L10.7967 2.34873L4.38877 8.64334L4.38946 19.3674L7.84393 19.3668L7.84462 12.4571C7.84462 11.7288 8.4085 11.1317 9.12372 11.0785L9.22668 11.0751H13.3729C14.1012 11.0751 14.6983 11.639 14.7515 12.3542L14.7549 12.4571L14.7542 19.3668L18.2101 19.3674L18.2094 8.64264L11.7835 2.32938C11.532 2.08269 11.1395 2.06748 10.863 2.28861ZM13.3729 12.4571H9.22668L9.22599 19.3668H13.3722L13.3729 12.4571Z" fill="#3769B2"/>
</svg>
