<svg width="23" height="20" viewBox="0 0 23 20" fill="none" xmlns="http://www.w3.org/2000/svg">
<path d="M2.21582 18.2344H19.2353" stroke="#EFA130" stroke-miterlimit="10" stroke-linecap="round" stroke-linejoin="round"/>
<path d="M1 12.1562L21.6665 12.1562" stroke="#EFA130" stroke-miterlimit="10" stroke-linecap="round" stroke-linejoin="round"/>
<path d="M3.39111 17.8303L3.43164 8.0805C3.43164 7.58613 3.66667 7.11611 4.05568 6.80814L9.72884 2.39117C10.3124 1.93732 11.1309 1.93732 11.7226 2.39117L17.3957 6.80003C17.7928 7.108 18.0198 7.57802 18.0198 8.0805V17.8303" stroke="#EFA130" stroke-miterlimit="10" stroke-linejoin="round"/>
<path d="M11.5363 13.7793H9.91538C9.24271 13.7793 8.69971 14.3223 8.69971 14.995V17.8316H12.752V14.995C12.752 14.3223 12.209 13.7793 11.5363 13.7793Z" stroke="#EFA130" stroke-miterlimit="10" stroke-linejoin="round"/>
<path d="M11.941 12.1568H9.50962C8.841 12.1568 8.29395 11.6879 8.29395 11.1148V9.55177C8.29395 8.97867 8.841 8.50977 9.50962 8.50977H11.941C12.6096 8.50977 13.1567 8.97867 13.1567 9.55177V11.1148C13.1567 11.6879 12.6096 12.1568 11.941 12.1568Z" stroke="#EFA130" stroke-miterlimit="10" stroke-linejoin="round"/>
<path d="M16.3984 5.67159L16.3741 3.24023H12.8081" stroke="#EFA130" stroke-miterlimit="10" stroke-linecap="round" stroke-linejoin="round"/>
</svg>
