<svg width="27" height="19" viewBox="0 0 27 19" fill="none" xmlns="http://www.w3.org/2000/svg">
<path d="M1.55225 17.0742H26" stroke="#EFA130" stroke-miterlimit="10" stroke-linecap="round" stroke-linejoin="round"/>
<path d="M2.28955 17.0759L2.32836 7.73914C2.32836 7.26571 2.55343 6.8156 2.92597 6.52067L8.3588 2.29081C8.91761 1.85619 9.70149 1.85619 10.2681 2.29081L15.7009 6.51291C16.0812 6.80783 16.2985 7.25795 16.2985 7.73914V17.0759" stroke="#EFA130" stroke-miterlimit="10" stroke-linejoin="round"/>
<path d="M10.09 13.1953H8.53771C7.89354 13.1953 7.37354 13.7153 7.37354 14.3595V17.0759H11.2541V14.3595C11.2541 13.7153 10.7341 13.1953 10.09 13.1953Z" stroke="#EFA130" stroke-miterlimit="10" stroke-linejoin="round"/>
<path d="M7.37328 10.6715H5.82104C5.39418 10.6715 5.04492 10.3222 5.04492 9.89538V8.7312C5.04492 8.30433 5.39418 7.95508 5.82104 7.95508H7.37328C7.80015 7.95508 8.1494 8.30433 8.1494 8.7312V9.89538C8.1494 10.3222 7.80015 10.6715 7.37328 10.6715Z" stroke="#EFA130" stroke-miterlimit="10" stroke-linejoin="round"/>
<path d="M12.8059 10.6715H11.2537C10.8268 10.6715 10.4775 10.3222 10.4775 9.89538V8.7312C10.4775 8.30433 10.8268 7.95508 11.2537 7.95508H12.8059C13.2328 7.95508 13.582 8.30433 13.582 8.7312V9.89538C13.582 10.3222 13.2328 10.6715 12.8059 10.6715Z" stroke="#EFA130" stroke-miterlimit="10" stroke-linejoin="round"/>
<path d="M14.7463 5.43187L14.723 3.10352H11.3081" stroke="#EFA130" stroke-miterlimit="10" stroke-linecap="round" stroke-linejoin="round"/>
</svg>
