<svg width="20" height="20" viewBox="0 0 20 20" fill="none" xmlns="http://www.w3.org/2000/svg">
<path d="M1.66699 18.332H18.3337" stroke="#EFA130" stroke-miterlimit="10" stroke-linecap="round" stroke-linejoin="round"/>
<path d="M2.4585 18.3344L2.50016 8.30934C2.50016 7.80101 2.74183 7.31772 3.14183 7.00105L8.97516 2.45938C9.57516 1.99271 10.4168 1.99271 11.0252 2.45938L16.8585 6.99271C17.2668 7.30938 17.5002 7.79267 17.5002 8.30934V18.3344" stroke="#EFA130" stroke-miterlimit="10" stroke-linejoin="round"/>
<path d="M10.8337 14.168H9.16699C8.47533 14.168 7.91699 14.7263 7.91699 15.418V18.3346H12.0837V15.418C12.0837 14.7263 11.5253 14.168 10.8337 14.168Z" stroke="#EFA130" stroke-miterlimit="10" stroke-linejoin="round"/>
<path d="M7.91699 11.4596H6.25033C5.79199 11.4596 5.41699 11.0846 5.41699 10.6263V9.3763C5.41699 8.91797 5.79199 8.54297 6.25033 8.54297H7.91699C8.37532 8.54297 8.75032 8.91797 8.75032 9.3763V10.6263C8.75032 11.0846 8.37532 11.4596 7.91699 11.4596Z" stroke="#EFA130" stroke-miterlimit="10" stroke-linejoin="round"/>
<path d="M13.75 11.4596H12.0833C11.625 11.4596 11.25 11.0846 11.25 10.6263V9.3763C11.25 8.91797 11.625 8.54297 12.0833 8.54297H13.75C14.2083 8.54297 14.5833 8.91797 14.5833 9.3763V10.6263C14.5833 11.0846 14.2083 11.4596 13.75 11.4596Z" stroke="#EFA130" stroke-miterlimit="10" stroke-linejoin="round"/>
<path d="M15.8333 5.83203L15.8083 3.33203H12.1416" stroke="#EFA130" stroke-miterlimit="10" stroke-linecap="round" stroke-linejoin="round"/>
</svg>
