<svg width="24" height="25" viewBox="0 0 24 25" fill="none" xmlns="http://www.w3.org/2000/svg">
<path d="M18.04 14.2228C17.62 14.6328 17.38 15.2228 17.44 15.8528C17.53 16.9328 18.52 17.7228 19.6 17.7228H21.5V18.9128C21.5 20.9828 19.81 22.6729 17.74 22.6729H6.26C4.19 22.6729 2.5 20.9828 2.5 18.9128V12.1829C2.5 10.1129 4.19 8.42285 6.26 8.42285H17.74C19.81 8.42285 21.5 10.1129 21.5 12.1829V13.6229H19.48C18.92 13.6229 18.41 13.8428 18.04 14.2228Z" stroke="#3769B2" stroke-width="1.5" stroke-linecap="round" stroke-linejoin="round"/>
<path d="M2.5 13.0827V8.51271C2.5 7.32271 3.23 6.26267 4.34 5.84267L12.28 2.84267C13.52 2.37267 14.85 3.2927 14.85 4.6227V8.42268" stroke="#3769B2" stroke-width="1.5" stroke-linecap="round" stroke-linejoin="round"/>
<path d="M22.5588 14.643V16.7031C22.5588 17.2531 22.1188 17.703 21.5588 17.723H19.5988C18.5188 17.723 17.5288 16.933 17.4388 15.853C17.3788 15.223 17.6188 14.633 18.0388 14.223C18.4088 13.843 18.9188 13.623 19.4788 13.623H21.5588C22.1188 13.643 22.5588 14.093 22.5588 14.643Z" stroke="#3769B2" stroke-width="1.5" stroke-linecap="round" stroke-linejoin="round"/>
<path d="M7 12.6729H14" stroke="#3769B2" stroke-width="1.5" stroke-linecap="round" stroke-linejoin="round"/>
</svg>
