<svg width="15" height="17" viewBox="0 0 15 17" fill="none" xmlns="http://www.w3.org/2000/svg">
<path d="M0.79541 11.4638V1.24951C0.79541 1.01381 0.79541 0.895958 0.868633 0.822735C0.941857 0.749512 1.05971 0.749512 1.29541 0.749512H12.5788C13.096 0.749512 13.3547 0.749512 13.4183 0.904479C13.482 1.05945 13.2982 1.2413 12.9304 1.60501L8.66631 5.82225C8.53088 5.95619 8.46316 6.02316 8.46316 6.10665C8.46316 6.19015 8.53088 6.25712 8.6663 6.39106L12.9304 10.6083C13.2982 10.972 13.482 11.1539 13.4183 11.3088C13.3547 11.4638 13.096 11.4638 12.5788 11.4638H0.79541ZM0.79541 11.4638V15.7495" stroke="#3769B2" stroke-width="1.5" stroke-linecap="round"/>
</svg>
