<svg width="26" height="19" viewBox="0 0 26 19" fill="none" xmlns="http://www.w3.org/2000/svg">
<path d="M13.9927 6.99658H17.741" stroke="#3769B2" stroke-width="1.5"/>
<path d="M5.87134 4.4978H20.8646" stroke="#3769B2" stroke-width="1.5"/>
<path d="M17.741 8.87086V2.62367C17.741 1.58851 16.902 0.749512 15.8669 0.749512C14.8317 0.749512 13.9927 1.58851 13.9927 2.62367M13.9927 8.87086V2.62367C13.9927 1.58851 13.1537 0.749512 12.1185 0.749512C11.0834 0.749512 10.2444 1.58851 10.2444 2.62367" stroke="#3769B2" stroke-width="1.5"/>
<mask id="mask0_58_121" style="mask-type:alpha" maskUnits="userSpaceOnUse" x="0" y="5" width="26" height="14">
<path d="M25.7954 5.66943V18.2556H0.79541V5.66943H25.7954Z" fill="black"/>
</mask>
<g mask="url(#mask0_58_121)">
<path d="M5.87802 16.0408C5.42572 16.0408 4.97342 15.8847 4.62858 15.5723C4.28373 15.2599 3.83144 15.1038 3.37914 15.1038C2.92685 15.1038 2.47455 15.2599 2.1297 15.5723C1.78486 15.8847 1.33256 16.0408 0.880266 16.0408C0.42797 16.0408 -0.0243269 15.8847 -0.369172 15.5723C-0.714017 15.2599 -1.16631 15.1038 -1.61861 15.1038C-2.07091 15.1038 -2.5232 15.2599 -2.86805 15.5723C-3.21289 15.8847 -3.66519 16.0408 -4.11748 16.0408C-4.56978 16.0408 -5.02208 15.8847 -5.36692 15.5723C-5.71177 15.2599 -6.16406 15.1038 -6.61636 15.1038C-7.06866 15.1038 -7.52095 15.2599 -7.8658 15.5723C-8.21064 15.8847 -8.66294 16.0408 -9.11523 16.0408M35.857 16.0496C35.4047 16.0496 34.9524 15.8934 34.6076 15.581C34.2627 15.2687 33.8104 15.1125 33.3581 15.1125C32.9059 15.1125 32.4536 15.2687 32.1087 15.581C31.7639 15.8934 31.3116 16.0496 30.8593 16.0496C30.407 16.0496 29.9547 15.8934 29.6098 15.581C29.265 15.2687 28.8127 15.1125 28.3604 15.1125C27.9081 15.1125 27.4558 15.2687 27.111 15.581C26.7661 15.8934 26.3138 16.0496 25.8615 16.0496C25.4092 16.0496 24.9569 15.8934 24.6121 15.581C24.2672 15.2687 23.8149 15.1125 23.3626 15.1125C22.9104 15.1125 22.4581 15.2687 22.1132 15.581C21.7684 15.8934 21.3161 16.0496 20.8638 16.0496M20.8644 16.0552C20.4121 16.0552 19.9598 15.899 19.615 15.5867C19.2701 15.2743 18.8178 15.1181 18.3655 15.1181C17.9132 15.1181 17.4609 15.2743 17.1161 15.5867C16.7712 15.899 16.3189 16.0552 15.8666 16.0552C15.4144 16.0552 14.9621 15.899 14.6172 15.5867C14.2724 15.2743 13.8201 15.1181 13.3678 15.1181C12.9155 15.1181 12.4632 15.2743 12.1183 15.5867C11.7735 15.899 11.3212 16.0552 10.8689 16.0552C10.4166 16.0552 9.9643 15.899 9.61946 15.5867C9.27461 15.2743 8.82232 15.1181 8.37002 15.1181C7.91772 15.1181 7.46543 15.2743 7.12058 15.5867C6.77574 15.899 6.32344 16.0552 5.87115 16.0552" stroke="#3769B2" stroke-width="1.5"/>
<path d="M5.87802 12.9173C5.42572 12.9173 4.97342 12.7611 4.62858 12.4488C4.28373 12.1364 3.83144 11.9802 3.37914 11.9802C2.92685 11.9802 2.47455 12.1364 2.1297 12.4488C1.78486 12.7611 1.33256 12.9173 0.880266 12.9173C0.42797 12.9173 -0.0243269 12.7611 -0.369172 12.4488C-0.714017 12.1364 -1.16631 11.9802 -1.61861 11.9802C-2.07091 11.9802 -2.5232 12.1364 -2.86805 12.4488C-3.21289 12.7611 -3.66519 12.9173 -4.11748 12.9173C-4.56978 12.9173 -5.02208 12.7611 -5.36692 12.4488C-5.71177 12.1364 -6.16406 11.9802 -6.61636 11.9802C-7.06866 11.9802 -7.52095 12.1364 -7.8658 12.4488C-8.21064 12.7611 -8.66294 12.9173 -9.11523 12.9173M35.857 12.926C35.4047 12.926 34.9524 12.7699 34.6076 12.4575C34.2627 12.1452 33.8104 11.989 33.3581 11.989C32.9059 11.989 32.4536 12.1452 32.1087 12.4575C31.7639 12.7699 31.3116 12.926 30.8593 12.926C30.407 12.926 29.9547 12.7699 29.6098 12.4575C29.265 12.1452 28.8127 11.989 28.3604 11.989C27.9081 11.989 27.4558 12.1452 27.111 12.4575C26.7661 12.7699 26.3138 12.926 25.8615 12.926C25.4092 12.926 24.9569 12.7699 24.6121 12.4575C24.2672 12.1452 23.8149 11.989 23.3626 11.989C22.9104 11.989 22.4581 12.1452 22.1132 12.4575C21.7684 12.7699 21.3161 12.926 20.8638 12.926M20.8644 12.9317C20.4121 12.9317 19.9598 12.7755 19.615 12.4631C19.2701 12.1508 18.8178 11.9946 18.3655 11.9946C17.9132 11.9946 17.4609 12.1508 17.1161 12.4631C16.7712 12.7755 16.3189 12.9317 15.8666 12.9317C15.4144 12.9317 14.9621 12.7755 14.6172 12.4631C14.2724 12.1508 13.8201 11.9946 13.3678 11.9946C12.9155 11.9946 12.4632 12.1508 12.1183 12.4631C11.7735 12.7755 11.3212 12.9317 10.8689 12.9317C10.4166 12.9317 9.9643 12.7755 9.61946 12.4631C9.27461 12.1508 8.82232 11.9946 8.37002 11.9946C7.91772 11.9946 7.46543 12.1508 7.12058 12.4631C6.77574 12.7755 6.32344 12.9317 5.87115 12.9317" stroke="#3769B2" stroke-width="1.5"/>
<path d="M5.87802 9.79352C5.42572 9.79352 4.97342 9.63734 4.62858 9.32498C4.28373 9.01263 3.83144 8.85645 3.37914 8.85645C2.92685 8.85645 2.47455 9.01263 2.1297 9.32498C1.78486 9.63734 1.33256 9.79352 0.880266 9.79352C0.42797 9.79352 -0.0243269 9.63734 -0.369172 9.32498C-0.714017 9.01263 -1.16631 8.85645 -1.61861 8.85645C-2.07091 8.85645 -2.5232 9.01263 -2.86805 9.32498C-3.21289 9.63734 -3.66519 9.79352 -4.11748 9.79352C-4.56978 9.79352 -5.02208 9.63734 -5.36692 9.32498C-5.71177 9.01263 -6.16406 8.85645 -6.61636 8.85645C-7.06866 8.85645 -7.52095 9.01263 -7.8658 9.32498C-8.21064 9.63734 -8.66294 9.79352 -9.11523 9.79352M35.857 9.80227C35.4047 9.80227 34.9524 9.64609 34.6076 9.33373C34.2627 9.02137 33.8104 8.86519 33.3581 8.86519C32.9059 8.86519 32.4536 9.02137 32.1087 9.33373C31.7639 9.64609 31.3116 9.80227 30.8593 9.80227C30.407 9.80227 29.9547 9.64609 29.6098 9.33373C29.265 9.02137 28.8127 8.86519 28.3604 8.86519C27.9081 8.86519 27.4558 9.02137 27.111 9.33373C26.7661 9.64609 26.3138 9.80227 25.8615 9.80227C25.4092 9.80227 24.9569 9.64609 24.6121 9.33373C24.2672 9.02137 23.8149 8.86519 23.3626 8.86519C22.9104 8.86519 22.4581 9.02137 22.1132 9.33373C21.7684 9.64609 21.3161 9.80227 20.8638 9.80227M20.8644 9.80789C20.4121 9.80789 19.9598 9.65171 19.615 9.33935C19.2701 9.02699 18.8178 8.87081 18.3655 8.87081C17.9132 8.87081 17.4609 9.02699 17.1161 9.33935C16.7712 9.65171 16.3189 9.80789 15.8666 9.80789C15.4144 9.80789 14.9621 9.65171 14.6172 9.33935C14.2724 9.02699 13.8201 8.87081 13.3678 8.87081C12.9155 8.87081 12.4632 9.02699 12.1183 9.33935C11.7735 9.65171 11.3212 9.80789 10.8689 9.80789C10.4166 9.80789 9.9643 9.65171 9.61946 9.33935C9.27461 9.02699 8.82232 8.87081 8.37002 8.87081C7.91772 8.87081 7.46543 9.02699 7.12058 9.33935C6.77574 9.65171 6.32344 9.80789 5.87115 9.80789" stroke="#3769B2" stroke-width="1.5"/>
</g>
</svg>
