<svg width="23" height="26" viewBox="0 0 23 26" fill="none" xmlns="http://www.w3.org/2000/svg">
<path d="M13.9026 10.9758C13.8264 8.9819 12.1179 7.2697 8.89408 5.78434L8.41725 5.56909L7.94042 5.78434C4.64164 7.30446 2.92944 9.06177 2.92944 11.1154V11.7252L4.14896 11.7246H5.36847H11.466H12.6855L13.9051 11.7252V11.1154L13.9026 10.9758ZM4.23127 10.5057L4.24347 10.4624L4.28127 10.3435C4.67822 9.19226 5.97335 8.06665 8.23066 6.9947L8.41725 6.90751L8.60383 6.9947L8.83371 7.10568C11.0246 8.18129 12.2563 9.30995 12.591 10.4624L12.6026 10.5057H4.23127Z" fill="#3769B2"/>
<path d="M12.0759 14.7721H4.75513V11.1147H12.0759V14.7721Z" stroke="#3769B2" stroke-width="1.5" stroke-linecap="round" stroke-linejoin="round"/>
<path d="M9.02689 14.6214H7.80737V12.9446H9.02689V14.6214Z" fill="#3769B2"/>
<path d="M17.2307 7.57209C17.46 8.42209 17.5636 9.36111 17.5636 10.5056C17.5636 11.9361 17.199 13.3605 16.4764 14.7739L15.0862 14.7733C15.9276 13.3385 16.3441 11.9178 16.3441 10.5056C16.3441 9.33184 16.2283 8.42453 15.974 7.61477C16.5344 6.54221 16.9539 6.54221 17.2307 7.57209Z" fill="#3769B2"/>
<path d="M17.015 6.26164C18.3162 6.43481 16.2284 8.42444 15.9742 7.61468C15.4992 7.84944 15.1644 8.32444 15.1278 8.88115L15.1248 8.98115H13.9053C13.9053 7.79212 14.6614 6.78054 15.7187 6.39883C15.6278 5.98054 17.1717 5.90615 17.015 6.26164Z" fill="#3769B2"/>
<path d="M17.0148 6.26164C18.316 6.43481 19.3282 7.51956 19.3898 8.85188L19.3929 8.98115H18.1733C18.1733 8.34517 17.7843 7.80066 17.2307 7.572C16.8368 7.28359 16.5239 7.12322 15.7185 6.39883C15.6276 5.98054 17.1715 5.90615 17.0148 6.26164Z" fill="#3769B2"/>
<path d="M17.015 6.26162C16.8979 6.3165 16.229 6.5793 15.7186 6.39881C15.6278 5.98052 15.1406 5.62747 14.515 5.62747C13.854 5.62747 13.3485 6.02137 13.2991 6.47076L13.2954 6.54211H12.0759C12.0759 5.33662 13.19 4.40796 14.515 4.40796C15.2357 4.40796 15.8942 4.68296 16.3448 5.12747C16.7948 4.68235 17.1717 5.90613 17.015 6.26162Z" fill="#3769B2"/>
<path d="M18.1735 4.40796C19.4558 4.40796 20.5406 5.27747 20.6089 6.42625L20.6125 6.54211H19.393C19.393 6.06406 18.8692 5.62747 18.1735 5.62747C17.618 5.62747 17.1717 5.90613 17.015 6.26162C16.9613 6.34454 16.4851 6.35003 15.7186 6.39881C15.6278 5.98052 15.8942 4.68296 16.3448 5.12747C16.7948 4.68235 17.4528 4.40796 18.1735 4.40796Z" fill="#3769B2"/>
<mask id="mask0_58_144" style="mask-type:alpha" maskUnits="userSpaceOnUse" x="0" y="0" width="23" height="26">
<path d="M22.7466 0.749512H0.79541V25.7495H22.7466V0.749512Z" fill="#F2DDBB"/>
</mask>
<g mask="url(#mask0_58_144)">
<path d="M16.9883 16.6033C17.6706 16.6039 18.3304 16.8539 18.8273 17.3203C19.0651 17.5429 19.3767 17.6764 19.7078 17.7033L19.8334 17.7081V18.9277C19.1511 18.9277 18.4914 18.6771 17.9938 18.2106C17.7267 17.96 17.3657 17.8228 16.9883 17.8228C16.6103 17.8228 16.2493 17.96 15.9822 18.2106C15.4846 18.6771 14.8249 18.9277 14.1426 18.9277C13.509 18.9277 12.8944 18.7118 12.4121 18.3075L12.3029 18.2106C12.0353 17.96 11.6749 17.8228 11.2968 17.8228C10.9188 17.8228 10.5584 17.96 10.2914 18.2106C9.79379 18.6771 9.13342 18.9277 8.45111 18.9277C7.76879 18.9277 7.10903 18.6771 6.61147 18.2106C6.3444 17.96 5.98403 17.8228 5.60599 17.8228C5.22794 17.8228 4.86757 17.96 4.59989 18.2106C4.13769 18.6435 3.53586 18.8911 2.90599 18.924L2.76025 18.9277V17.7081C3.09623 17.7081 3.41818 17.5996 3.67367 17.3996L3.76635 17.3203C4.26391 16.8539 4.92367 16.6039 5.60599 16.6033C6.2883 16.6039 6.94806 16.8539 7.44562 17.3203C7.71269 17.571 8.07306 17.7081 8.45111 17.7081C8.82916 17.7081 9.18952 17.5716 9.45721 17.3203C9.95477 16.8545 10.6145 16.6039 11.2968 16.6033C11.9792 16.6039 12.6389 16.8539 13.1365 17.3203C13.4042 17.571 13.7645 17.7081 14.1426 17.7081C14.5206 17.7081 14.881 17.571 15.1481 17.3203C15.6456 16.8539 16.3054 16.6039 16.9883 16.6033Z" fill="#3769B2"/>
<path d="M33.8499 16.6033C34.5322 16.6039 35.1919 16.8539 35.6889 17.3203C35.9267 17.5429 36.2383 17.6764 36.5694 17.7033L36.695 17.7081V18.9277C36.0127 18.9277 35.3529 18.6771 34.8554 18.2106C34.5883 17.96 34.2273 17.8228 33.8499 17.8228C33.4718 17.8228 33.1109 17.96 32.8438 18.2106C32.3462 18.6771 31.6865 18.9277 31.0041 18.9277C30.3706 18.9277 29.756 18.7118 29.2737 18.3075L29.1645 18.2106C28.8968 17.96 28.5365 17.8228 28.1584 17.8228C27.7804 17.8228 27.42 17.96 27.1529 18.2106C26.6554 18.6771 25.995 18.9277 25.3127 18.9277C24.6304 18.9277 23.9706 18.6771 23.473 18.2106C23.206 17.96 22.8456 17.8228 22.4676 17.8228C22.0895 17.8228 21.7291 17.96 21.4615 18.2106C20.9993 18.6435 20.3974 18.8911 19.7676 18.924L19.6218 18.9277V17.7081C19.9578 17.7081 20.2798 17.5996 20.5352 17.3996L20.6279 17.3203C21.1255 16.8539 21.7852 16.6039 22.4676 16.6033C23.1499 16.6039 23.8096 16.8539 24.3072 17.3203C24.5743 17.571 24.9346 17.7081 25.3127 17.7081C25.6907 17.7081 26.0511 17.5716 26.3188 17.3203C26.8163 16.8545 27.4761 16.6039 28.1584 16.6033C28.8407 16.6039 29.5005 16.8539 29.998 17.3203C30.2657 17.571 30.6261 17.7081 31.0041 17.7081C31.3822 17.7081 31.7426 17.571 32.0096 17.3203C32.5072 16.8539 33.1669 16.6039 33.8499 16.6033Z" fill="#3769B2"/>
<path d="M0.00832272 16.6033C0.690639 16.6039 1.3504 16.8539 1.84735 17.3203C2.08515 17.5429 2.39674 17.6764 2.72783 17.7033L2.85345 17.7081V18.9277C2.17113 18.9277 1.51137 18.6771 1.01381 18.2106C0.746737 17.96 0.385761 17.8228 0.00832272 17.8228C-0.369726 17.8228 -0.730702 17.96 -0.997775 18.2106C-1.49534 18.6771 -2.15509 18.9277 -2.83741 18.9277C-3.47095 18.9277 -4.08558 18.7118 -4.5679 18.3075L-4.67704 18.2106C-4.94473 17.96 -5.30509 17.8228 -5.68314 17.8228C-6.06119 17.8228 -6.42156 17.96 -6.68863 18.2106C-7.18619 18.6771 -7.84656 18.9277 -8.52887 18.9277C-9.21119 18.9277 -9.87095 18.6771 -10.3685 18.2106C-10.6356 17.96 -10.9959 17.8228 -11.374 17.8228C-11.752 17.8228 -12.1124 17.96 -12.3801 18.2106C-12.8423 18.6435 -13.4441 18.8911 -14.074 18.924L-14.2197 18.9277V17.7081C-13.8838 17.7081 -13.5618 17.5996 -13.3063 17.3996L-13.2136 17.3203C-12.7161 16.8539 -12.0563 16.6039 -11.374 16.6033C-10.6917 16.6039 -10.0319 16.8539 -9.53436 17.3203C-9.26729 17.571 -8.90692 17.7081 -8.52887 17.7081C-8.15082 17.7081 -7.79046 17.5716 -7.52278 17.3203C-7.02521 16.8545 -6.36546 16.6039 -5.68314 16.6033C-5.00082 16.6039 -4.34107 16.8539 -3.84351 17.3203C-3.57582 17.571 -3.21546 17.7081 -2.83741 17.7081C-2.45936 17.7081 -2.09899 17.571 -1.83192 17.3203C-1.33436 16.8539 -0.674604 16.6039 0.00832272 16.6033Z" fill="#3769B2"/>
</g>
<mask id="mask1_58_144" style="mask-type:alpha" maskUnits="userSpaceOnUse" x="0" y="0" width="23" height="26">
<path d="M22.7466 0.749512H0.79541V25.7495H22.7466V0.749512Z" fill="#F2DDBB"/>
</mask>
<g mask="url(#mask1_58_144)">
<path d="M16.9883 19.6519C17.6706 19.6525 18.3304 19.9025 18.8273 20.3689C19.0651 20.5915 19.3767 20.725 19.7078 20.7519L19.8334 20.7567V21.9762C19.1511 21.9762 18.4914 21.7256 17.9938 21.2592C17.7267 21.0086 17.3657 20.8714 16.9883 20.8714C16.6103 20.8714 16.2493 21.0086 15.9822 21.2592C15.4846 21.7256 14.8249 21.9762 14.1426 21.9762C13.509 21.9762 12.8944 21.7604 12.4121 21.3561L12.3029 21.2592C12.0353 21.0086 11.6749 20.8714 11.2968 20.8714C10.9188 20.8714 10.5584 21.0086 10.2914 21.2592C9.79379 21.7256 9.13342 21.9762 8.45111 21.9762C7.76879 21.9762 7.10903 21.7256 6.61147 21.2592C6.3444 21.0086 5.98403 20.8714 5.60599 20.8714C5.22794 20.8714 4.86757 21.0086 4.59989 21.2592C4.13769 21.6921 3.53586 21.9397 2.90599 21.9726L2.76025 21.9762V20.7567C3.09623 20.7567 3.41818 20.6482 3.67367 20.4482L3.76635 20.3689C4.26391 19.9025 4.92367 19.6525 5.60599 19.6519C6.2883 19.6525 6.94806 19.9025 7.44562 20.3689C7.71269 20.6195 8.07306 20.7567 8.45111 20.7567C8.82916 20.7567 9.18952 20.6201 9.45721 20.3689C9.95477 19.9031 10.6145 19.6525 11.2968 19.6519C11.9792 19.6525 12.6389 19.9025 13.1365 20.3689C13.4042 20.6195 13.7645 20.7567 14.1426 20.7567C14.5206 20.7567 14.881 20.6195 15.1481 20.3689C15.6456 19.9025 16.3054 19.6525 16.9883 19.6519Z" fill="#3769B2"/>
<path d="M33.8499 19.6519C34.5322 19.6525 35.1919 19.9025 35.6889 20.3689C35.9267 20.5915 36.2383 20.725 36.5694 20.7519L36.695 20.7567V21.9762C36.0127 21.9762 35.3529 21.7256 34.8554 21.2592C34.5883 21.0086 34.2273 20.8714 33.8499 20.8714C33.4718 20.8714 33.1109 21.0086 32.8438 21.2592C32.3462 21.7256 31.6865 21.9762 31.0041 21.9762C30.3706 21.9762 29.756 21.7604 29.2737 21.3561L29.1645 21.2592C28.8968 21.0086 28.5365 20.8714 28.1584 20.8714C27.7804 20.8714 27.42 21.0086 27.1529 21.2592C26.6554 21.7256 25.995 21.9762 25.3127 21.9762C24.6304 21.9762 23.9706 21.7256 23.473 21.2592C23.206 21.0086 22.8456 20.8714 22.4676 20.8714C22.0895 20.8714 21.7291 21.0086 21.4615 21.2592C20.9993 21.6921 20.3974 21.9397 19.7676 21.9726L19.6218 21.9762V20.7567C19.9578 20.7567 20.2798 20.6482 20.5352 20.4482L20.6279 20.3689C21.1255 19.9025 21.7852 19.6525 22.4676 19.6519C23.1499 19.6525 23.8096 19.9025 24.3072 20.3689C24.5743 20.6195 24.9346 20.7567 25.3127 20.7567C25.6907 20.7567 26.0511 20.6201 26.3188 20.3689C26.8163 19.9031 27.4761 19.6525 28.1584 19.6519C28.8407 19.6525 29.5005 19.9025 29.998 20.3689C30.2657 20.6195 30.6261 20.7567 31.0041 20.7567C31.3822 20.7567 31.7426 20.6195 32.0096 20.3689C32.5072 19.9025 33.1669 19.6525 33.8499 19.6519Z" fill="#3769B2"/>
<path d="M0.00832272 19.6519C0.690639 19.6525 1.3504 19.9025 1.84735 20.3689C2.08515 20.5915 2.39674 20.725 2.72783 20.7519L2.85345 20.7567V21.9762C2.17113 21.9762 1.51137 21.7256 1.01381 21.2592C0.746737 21.0086 0.385761 20.8714 0.00832272 20.8714C-0.369726 20.8714 -0.730702 21.0086 -0.997775 21.2592C-1.49534 21.7256 -2.15509 21.9762 -2.83741 21.9762C-3.47095 21.9762 -4.08558 21.7604 -4.5679 21.3561L-4.67704 21.2592C-4.94473 21.0086 -5.30509 20.8714 -5.68314 20.8714C-6.06119 20.8714 -6.42156 21.0086 -6.68863 21.2592C-7.18619 21.7256 -7.84656 21.9762 -8.52887 21.9762C-9.21119 21.9762 -9.87095 21.7256 -10.3685 21.2592C-10.6356 21.0086 -10.9959 20.8714 -11.374 20.8714C-11.752 20.8714 -12.1124 21.0086 -12.3801 21.2592C-12.8423 21.6921 -13.4441 21.9397 -14.074 21.9726L-14.2197 21.9762V20.7567C-13.8838 20.7567 -13.5618 20.6482 -13.3063 20.4482L-13.2136 20.3689C-12.7161 19.9025 -12.0563 19.6525 -11.374 19.6519C-10.6917 19.6525 -10.0319 19.9025 -9.53436 20.3689C-9.26729 20.6195 -8.90692 20.7567 -8.52887 20.7567C-8.15082 20.7567 -7.79046 20.6201 -7.52278 20.3689C-7.02521 19.9031 -6.36546 19.6525 -5.68314 19.6519C-5.00082 19.6525 -4.34107 19.9025 -3.84351 20.3689C-3.57582 20.6195 -3.21546 20.7567 -2.83741 20.7567C-2.45936 20.7567 -2.09899 20.6195 -1.83192 20.3689C-1.33436 19.9025 -0.674604 19.6525 0.00832272 19.6519Z" fill="#3769B2"/>
</g>
</svg>
