<svg width="21" height="21" viewBox="0 0 21 21" fill="none" xmlns="http://www.w3.org/2000/svg">
<path d="M1.92857 4.04628H7.64286V1.90342C7.64357 1.52485 7.79429 1.16128 8.06214 0.893425C8.32929 0.626282 8.69286 0.475568 9.07143 0.474854H19.0714C19.45 0.475568 19.8136 0.625568 20.0814 0.893425C20.3493 1.16128 20.4993 1.52485 20.5 1.90342V19.0463C20.4993 19.4249 20.3486 19.7884 20.0814 20.0556C19.8136 20.3234 19.45 20.4741 19.0714 20.4749H1.92857C1.55 20.4741 1.18714 20.3234 0.919285 20.0556C0.651428 19.7877 0.500713 19.4249 0.5 19.0463V5.47485C0.500713 5.09628 0.651428 4.73271 0.919285 4.46485C1.18643 4.19771 1.55 4.047 1.92857 4.04628ZM12.6429 19.0463H15.5V15.4749H12.6429V19.0463ZM9.07143 19.0463H11.2143V15.4749C11.215 15.0963 11.3657 14.7327 11.6336 14.4656C11.9007 14.1977 12.2643 14.047 12.6429 14.0463H15.5C15.8786 14.047 16.2421 14.1977 16.51 14.4656C16.7771 14.7327 16.9279 15.0963 16.9286 15.4749V19.0463H19.0714L19.0721 1.90342H9.07143V19.0463ZM1.92857 19.0463H7.64286V5.47485H1.92857V19.0463ZM11.2143 10.4749C11.2143 10.6163 11.2564 10.7541 11.335 10.872C11.4129 10.9891 11.525 11.0806 11.655 11.1349C11.7857 11.1891 11.9293 11.2027 12.0679 11.1756C12.2064 11.1477 12.3336 11.0799 12.4336 10.9799C12.5336 10.8799 12.6014 10.7527 12.6293 10.6141C12.6564 10.4756 12.6429 10.332 12.5886 10.2013C12.5343 10.0713 12.4429 9.95914 12.3257 9.88128C12.2079 9.80271 12.07 9.76057 11.9286 9.76057C11.7393 9.76057 11.5571 9.83557 11.4236 9.96985C11.2893 10.1034 11.2143 10.2856 11.2143 10.4749ZM11.2143 7.61771C11.2143 7.75914 11.2564 7.897 11.335 8.01485C11.4129 8.132 11.525 8.22342 11.655 8.27771C11.7857 8.332 11.9293 8.34557 12.0679 8.31843C12.2064 8.29057 12.3336 8.22271 12.4336 8.12271C12.5336 8.02271 12.6014 7.89557 12.6293 7.757C12.6564 7.61842 12.6429 7.47485 12.5886 7.34414C12.5343 7.21414 12.4429 7.102 12.3257 7.02414C12.2079 6.94557 12.07 6.90343 11.9286 6.90343C11.7393 6.90343 11.5571 6.97843 11.4236 7.11271C11.2893 7.24628 11.2143 7.42843 11.2143 7.61771ZM11.2143 4.76057C11.2143 4.902 11.2564 5.03985 11.335 5.15771C11.4129 5.27485 11.525 5.36628 11.655 5.42057C11.7857 5.47485 11.9293 5.48843 12.0679 5.46128C12.2064 5.43342 12.3336 5.36557 12.4336 5.26557C12.5336 5.16557 12.6014 5.03842 12.6293 4.89985C12.6564 4.76128 12.6429 4.61771 12.5886 4.487C12.5343 4.357 12.4429 4.24485 12.3257 4.167C12.2079 4.08843 12.07 4.04628 11.9286 4.04628C11.7393 4.04628 11.5571 4.12128 11.4236 4.25557C11.2893 4.38914 11.2143 4.57128 11.2143 4.76057ZM15.5 10.4749C15.5 10.6163 15.5421 10.7541 15.6207 10.872C15.6986 10.9891 15.8107 11.0806 15.9407 11.1349C16.0714 11.1891 16.215 11.2027 16.3536 11.1756C16.4921 11.1477 16.6193 11.0799 16.7193 10.9799C16.8193 10.8799 16.8871 10.7527 16.915 10.6141C16.9421 10.4756 16.9286 10.332 16.8743 10.2013C16.82 10.0713 16.7286 9.95914 16.6114 9.88128C16.4936 9.80271 16.3557 9.76057 16.2143 9.76057C16.025 9.76057 15.8429 9.83557 15.7093 9.96985C15.575 10.1034 15.5 10.2856 15.5 10.4749ZM15.5 7.61771C15.5 7.75914 15.5421 7.897 15.6207 8.01485C15.6986 8.132 15.8107 8.22342 15.9407 8.27771C16.0714 8.332 16.215 8.34557 16.3536 8.31843C16.4921 8.29057 16.6193 8.22271 16.7193 8.12271C16.8193 8.02271 16.8871 7.89557 16.915 7.757C16.9421 7.61842 16.9286 7.47485 16.8743 7.34414C16.82 7.21414 16.7286 7.102 16.6114 7.02414C16.4936 6.94557 16.3557 6.90343 16.2143 6.90343C16.025 6.90343 15.8429 6.97843 15.7093 7.11271C15.575 7.24628 15.5 7.42843 15.5 7.61771ZM15.5 4.76057C15.5 4.902 15.5421 5.03985 15.6207 5.15771C15.6986 5.27485 15.8107 5.36628 15.9407 5.42057C16.0714 5.47485 16.215 5.48843 16.3536 5.46128C16.4921 5.43342 16.6193 5.36557 16.7193 5.26557C16.8193 5.16557 16.8871 5.03842 16.915 4.89985C16.9421 4.76128 16.9286 4.61771 16.8743 4.487C16.82 4.357 16.7286 4.24485 16.6114 4.167C16.4936 4.08843 16.3557 4.04628 16.2143 4.04628C16.025 4.04628 15.8429 4.12128 15.7093 4.25557C15.575 4.38914 15.5 4.57128 15.5 4.76057Z" fill="#3769B2"/>
</svg>
