<svg width="69" height="69" viewBox="0 0 69 69" fill="none" xmlns="http://www.w3.org/2000/svg">
<circle cx="34.5" cy="34.5" r="34.5" fill="#C821D7"/>
<path fill-rule="evenodd" clip-rule="evenodd" d="M43.7785 47.0002H26.964C24.6404 47.0002 22.7422 45.102 22.7422 42.7785V25.964C22.7422 23.6404 24.6404 21.7422 26.964 21.7422H43.7785C46.102 21.7422 48.0002 23.6404 48.0002 25.964V42.7785C48.0002 45.1124 46.1124 47.0002 43.7785 47.0002ZM35.3769 40.86C33.6447 40.86 32.0161 40.1858 30.7921 38.9618C29.5681 37.7378 28.8939 36.1092 28.8939 34.3769C28.8939 32.6447 29.5681 31.0161 30.7921 29.7921C32.0161 28.5681 33.6447 27.8939 35.3769 27.8939C37.1092 27.8939 38.7378 28.5681 39.9618 29.7921C41.1858 31.0161 41.86 32.6447 41.86 34.3769C41.86 36.1092 41.1858 37.7378 39.9618 38.9618C38.7274 40.1858 37.1092 40.86 35.3769 40.86ZM35.3769 29.2735C32.5659 29.2735 30.2735 31.5555 30.2735 34.3769C30.2735 37.188 32.5555 39.4804 35.3769 39.4804C38.188 39.4804 40.4804 37.1984 40.4804 34.3769C40.47 31.5659 38.188 29.2735 35.3769 29.2735ZM44.3684 26.4347C44.3684 27.1222 43.8111 27.6795 43.1236 27.6795C42.4362 27.6795 41.8789 27.1222 41.8789 26.4347C41.8789 25.7473 42.4362 25.19 43.1236 25.19C43.8111 25.19 44.3684 25.7473 44.3684 26.4347Z" fill="white"/>
</svg>
