<svg width="21" height="21" viewBox="0 0 21 21" fill="none" xmlns="http://www.w3.org/2000/svg">
<path fill-rule="evenodd" clip-rule="evenodd" d="M17.275 20.7419H3.46693C1.55884 20.7419 0 19.1831 0 17.275V3.46693C0 1.55884 1.55884 0 3.46693 0H17.275C19.1831 0 20.7419 1.55884 20.7419 3.46693V17.275C20.7419 19.1916 19.1916 20.7419 17.275 20.7419ZM10.3754 15.6996C8.95281 15.6996 7.61545 15.1459 6.6103 14.1408C5.60514 13.1356 5.05146 11.7982 5.05146 10.3757C5.05146 8.95315 5.60514 7.61579 6.6103 6.61063C7.61545 5.60548 8.95281 5.0518 10.3754 5.0518C11.7979 5.0518 13.1353 5.60548 14.1404 6.61063C15.1456 7.61579 15.6993 8.95315 15.6993 10.3757C15.6993 11.7982 15.1456 13.1356 14.1404 14.1408C13.1268 15.1459 11.7979 15.6996 10.3754 15.6996ZM10.3754 6.18472C8.06692 6.18472 6.18438 8.05874 6.18438 10.3757C6.18438 12.6841 8.0584 14.5667 10.3754 14.5667C12.6838 14.5667 14.5663 12.6927 14.5663 10.3757C14.5578 8.06726 12.6838 6.18472 10.3754 6.18472ZM17.759 3.85358C17.759 4.41813 17.3014 4.8758 16.7368 4.8758C16.1722 4.8758 15.7146 4.41813 15.7146 3.85358C15.7146 3.28903 16.1722 2.83137 16.7368 2.83137C17.3014 2.83137 17.759 3.28903 17.759 3.85358Z" fill="white"/>
</svg>
