<svg width="69" height="69" viewBox="0 0 69 69" fill="none" xmlns="http://www.w3.org/2000/svg">
<circle cx="34.5" cy="34.5" r="34.5" fill="#7AC3ED"/>
<path d="M19.9167 47.0833H49.0834" stroke="white" stroke-width="2" stroke-miterlimit="10" stroke-linecap="round" stroke-linejoin="round"/>
<path d="M38.8896 47.0685L21.3896 47.0977L21.375 25.3102C21.375 24.3331 21.8709 23.4289 22.6729 22.8893L28.5063 18.9956C29.4834 18.3394 30.7666 18.3394 31.7437 18.9956L37.5771 22.8893C38.3937 23.4289 38.875 24.3331 38.875 25.3102L38.8896 47.0685Z" stroke="white" stroke-width="2" stroke-miterlimit="10" stroke-linecap="round" stroke-linejoin="round"/>
<path d="M46.1375 47.0979V41.25" stroke="white" stroke-width="2" stroke-miterlimit="10" stroke-linecap="round" stroke-linejoin="round"/>
<path d="M46.1667 32.5C44.5625 32.5 43.25 33.8125 43.25 35.4167V38.3333C43.25 39.9375 44.5625 41.25 46.1667 41.25C47.7708 41.25 49.0833 39.9375 49.0833 38.3333V35.4167C49.0833 33.8125 47.7708 32.5 46.1667 32.5Z" stroke="white" stroke-width="2" stroke-miterlimit="10" stroke-linecap="round" stroke-linejoin="round"/>
<path d="M21.375 35.4167H38.875" stroke="white" stroke-width="2" stroke-miterlimit="10" stroke-linecap="round" stroke-linejoin="round"/>
<path d="M30.125 47.0833V41.6145" stroke="white" stroke-width="2" stroke-miterlimit="10" stroke-linecap="round" stroke-linejoin="round"/>
<path d="M30.125 30.3125C31.3331 30.3125 32.3125 29.3331 32.3125 28.125C32.3125 26.9169 31.3331 25.9375 30.125 25.9375C28.9169 25.9375 27.9375 26.9169 27.9375 28.125C27.9375 29.3331 28.9169 30.3125 30.125 30.3125Z" stroke="white" stroke-width="2" stroke-miterlimit="10" stroke-linecap="round" stroke-linejoin="round"/>
</svg>
