<svg width="69" height="69" viewBox="0 0 69 69" fill="none" xmlns="http://www.w3.org/2000/svg">
<circle cx="34.5" cy="34.5" r="34.5" fill="#F9BC3B"/>
<path d="M19.9167 49.0835H49.0834" stroke="white" stroke-width="2" stroke-miterlimit="10" stroke-linecap="round" stroke-linejoin="round"/>
<path d="M21.302 49.0837L21.3749 31.5399C21.3749 30.6503 21.7978 29.8045 22.4978 29.2504L32.7062 21.3024C33.7562 20.4858 35.2291 20.4858 36.2937 21.3024L46.502 29.2358C47.2166 29.7899 47.6249 30.6357 47.6249 31.5399V49.0837" stroke="white" stroke-width="2" stroke-miterlimit="10" stroke-linejoin="round"/>
<path d="M35.9584 41.7915H33.0417C31.8313 41.7915 30.8542 42.7686 30.8542 43.979V49.0832H38.1459V43.979C38.1459 42.7686 37.1688 41.7915 35.9584 41.7915Z" stroke="white" stroke-width="2" stroke-miterlimit="10" stroke-linejoin="round"/>
<path d="M30.8542 37.0519H27.9376C27.1355 37.0519 26.4792 36.3957 26.4792 35.5936V33.4061C26.4792 32.604 27.1355 31.9478 27.9376 31.9478H30.8542C31.6563 31.9478 32.3126 32.604 32.3126 33.4061V35.5936C32.3126 36.3957 31.6563 37.0519 30.8542 37.0519Z" stroke="white" stroke-width="2" stroke-miterlimit="10" stroke-linejoin="round"/>
<path d="M41.0625 37.0519H38.1458C37.3438 37.0519 36.6875 36.3957 36.6875 35.5936V33.4061C36.6875 32.604 37.3438 31.9478 38.1458 31.9478H41.0625C41.8646 31.9478 42.5208 32.604 42.5208 33.4061V35.5936C42.5208 36.3957 41.8646 37.0519 41.0625 37.0519Z" stroke="white" stroke-width="2" stroke-miterlimit="10" stroke-linejoin="round"/>
<path d="M44.7085 27.2085L44.6647 22.8335H38.248" stroke="white" stroke-width="2" stroke-miterlimit="10" stroke-linecap="round" stroke-linejoin="round"/>
</svg>
