<svg width="68" height="68" viewBox="0 0 68 68" fill="none" xmlns="http://www.w3.org/2000/svg">
<circle cx="34" cy="34" r="34" fill="#F58840"/>
<path d="M19.4287 23.2066H28.0636V19.9685C28.0647 19.3965 28.2924 18.8471 28.6972 18.4423C29.1009 18.0386 29.6503 17.8109 30.2223 17.8098H45.3335C45.9055 17.8109 46.4549 18.0376 46.8597 18.4423C47.2644 18.8471 47.4911 19.3965 47.4922 19.9685V45.8733C47.4911 46.4454 47.2634 46.9948 46.8597 47.3985C46.4549 47.8032 45.9055 48.031 45.3335 48.032H19.4287C18.8566 48.031 18.3083 47.8032 17.9036 47.3985C17.4988 46.9937 17.271 46.4454 17.27 45.8733V25.3654C17.271 24.7933 17.4988 24.2439 17.9036 23.8391C18.3072 23.4355 18.8566 23.2077 19.4287 23.2066ZM35.6192 45.8733H39.9366V40.4765H35.6192V45.8733ZM30.2223 45.8733H33.4604V40.4765C33.4615 39.9044 33.6893 39.355 34.094 38.9513C34.4977 38.5466 35.0471 38.3188 35.6192 38.3178H39.9366C40.5087 38.3188 41.0581 38.5466 41.4629 38.9513C41.8665 39.355 42.0943 39.9044 42.0954 40.4765V45.8733H45.3335L45.3345 19.9685H30.2223V45.8733ZM19.4287 45.8733H28.0636V25.3654H19.4287V45.8733ZM33.4604 32.9209C33.4604 33.1346 33.5241 33.343 33.6429 33.5211C33.7605 33.6981 33.93 33.8362 34.1264 33.9183C34.3239 34.0003 34.5409 34.0208 34.7503 33.9798C34.9597 33.9377 35.1518 33.8351 35.3029 33.684C35.454 33.5329 35.5566 33.3408 35.5987 33.1314C35.6397 32.922 35.6192 32.7051 35.5371 32.5075C35.4551 32.3111 35.3169 32.1416 35.1399 32.024C34.9618 31.9052 34.7535 31.8416 34.5398 31.8416C34.2538 31.8416 33.9785 31.9549 33.7767 32.1578C33.5738 32.3597 33.4604 32.6349 33.4604 32.9209ZM33.4604 28.6035C33.4604 28.8172 33.5241 29.0255 33.6429 29.2036C33.7605 29.3806 33.93 29.5188 34.1264 29.6008C34.3239 29.6828 34.5409 29.7033 34.7503 29.6623C34.9597 29.6202 35.1518 29.5177 35.3029 29.3666C35.454 29.2155 35.5566 29.0233 35.5987 28.8139C35.6397 28.6045 35.6192 28.3876 35.5371 28.1901C35.4551 27.9936 35.3169 27.8242 35.1399 27.7065C34.9618 27.5878 34.7535 27.5241 34.5398 27.5241C34.2538 27.5241 33.9785 27.6374 33.7767 27.8404C33.5738 28.0422 33.4604 28.3174 33.4604 28.6035ZM33.4604 24.286C33.4604 24.4997 33.5241 24.708 33.6429 24.8861C33.7605 25.0631 33.93 25.2013 34.1264 25.2833C34.3239 25.3654 34.5409 25.3859 34.7503 25.3449C34.9597 25.3028 35.1518 25.2002 35.3029 25.0491C35.454 24.898 35.5566 24.7059 35.5987 24.4965C35.6397 24.2871 35.6192 24.0701 35.5371 23.8726C35.4551 23.6762 35.3169 23.5067 35.1399 23.3891C34.9618 23.2703 34.7535 23.2066 34.5398 23.2066C34.2538 23.2066 33.9785 23.32 33.7767 23.5229C33.5738 23.7247 33.4604 24 33.4604 24.286ZM39.9366 32.9209C39.9366 33.1346 40.0003 33.343 40.119 33.5211C40.2367 33.6981 40.4062 33.8362 40.6026 33.9183C40.8001 34.0003 41.0171 34.0208 41.2265 33.9798C41.4359 33.9377 41.628 33.8351 41.7791 33.684C41.9302 33.5329 42.0328 33.3408 42.0749 33.1314C42.1159 32.922 42.0954 32.7051 42.0133 32.5075C41.9313 32.3111 41.7931 32.1416 41.6161 32.024C41.438 31.9052 41.2297 31.8416 41.016 31.8416C40.73 31.8416 40.4547 31.9549 40.2529 32.1578C40.05 32.3597 39.9366 32.6349 39.9366 32.9209ZM39.9366 28.6035C39.9366 28.8172 40.0003 29.0255 40.119 29.2036C40.2367 29.3806 40.4062 29.5188 40.6026 29.6008C40.8001 29.6828 41.0171 29.7033 41.2265 29.6623C41.4359 29.6202 41.628 29.5177 41.7791 29.3666C41.9302 29.2155 42.0328 29.0233 42.0749 28.8139C42.1159 28.6045 42.0954 28.3876 42.0133 28.1901C41.9313 27.9936 41.7931 27.8242 41.6161 27.7065C41.438 27.5878 41.2297 27.5241 41.016 27.5241C40.73 27.5241 40.4547 27.6374 40.2529 27.8404C40.05 28.0422 39.9366 28.3174 39.9366 28.6035ZM39.9366 24.286C39.9366 24.4997 40.0003 24.708 40.119 24.8861C40.2367 25.0631 40.4062 25.2013 40.6026 25.2833C40.8001 25.3654 41.0171 25.3859 41.2265 25.3449C41.4359 25.3028 41.628 25.2002 41.7791 25.0491C41.9302 24.898 42.0328 24.7059 42.0749 24.4965C42.1159 24.2871 42.0954 24.0701 42.0133 23.8726C41.9313 23.6762 41.7931 23.5067 41.6161 23.3891C41.438 23.2703 41.2297 23.2066 41.016 23.2066C40.73 23.2066 40.4547 23.32 40.2529 23.5229C40.05 23.7247 39.9366 24 39.9366 24.286Z" fill="white"/>
</svg>
