<svg width="69" height="69" viewBox="0 0 69 69" fill="none" xmlns="http://www.w3.org/2000/svg">
<circle cx="34.5" cy="34.5" r="34.5" fill="#04A7C8"/>
<path d="M18.4583 47.0833H50.5416" stroke="white" stroke-width="2.5" stroke-miterlimit="10" stroke-linecap="round" stroke-linejoin="round"/>
<path d="M45.8457 47.0982V40.594" stroke="white" stroke-width="2.5" stroke-miterlimit="10" stroke-linecap="round" stroke-linejoin="round"/>
<path d="M45.8751 30.8816C44.0959 30.8816 42.6667 32.3108 42.6667 34.0899V37.4003C42.6667 39.1795 44.0959 40.6087 45.8751 40.6087C47.6543 40.6087 49.0835 39.1795 49.0835 37.4003V34.0899C49.0835 32.3108 47.6543 30.8816 45.8751 30.8816Z" stroke="white" stroke-width="2.5" stroke-miterlimit="10" stroke-linecap="round" stroke-linejoin="round"/>
<path d="M20.0625 47.0834V23.7938C20.0625 20.8626 21.5209 19.3896 24.423 19.3896H33.5084C36.4105 19.3896 37.8542 20.8626 37.8542 23.7938V47.0834" stroke="white" stroke-width="2.5" stroke-miterlimit="10" stroke-linecap="round" stroke-linejoin="round"/>
<path d="M25.4585 27.0312H32.6773" stroke="white" stroke-width="2.5" stroke-miterlimit="10" stroke-linecap="round" stroke-linejoin="round"/>
<path d="M25.4585 32.5H32.6773" stroke="white" stroke-width="2.5" stroke-miterlimit="10" stroke-linecap="round" stroke-linejoin="round"/>
<path d="M29.0312 47.0833V41.6145" stroke="white" stroke-width="2.5" stroke-miterlimit="10" stroke-linecap="round" stroke-linejoin="round"/>
</svg>
