<svg width="491" height="115" viewBox="0 0 491 115" fill="none" xmlns="http://www.w3.org/2000/svg">
<path d="M18.5635 77C15.8877 77 13.4126 76.5642 11.1381 75.6927C8.89711 74.7877 6.94041 73.5307 5.26802 71.9218C3.62908 70.2793 2.34134 68.3687 1.40481 66.1899C0.468269 64.0112 0 61.6145 0 59C0 56.3855 0.468269 53.9888 1.40481 51.8101C2.34134 49.6313 3.64581 47.7374 5.3182 46.1285C6.99058 44.486 8.94728 43.229 11.1883 42.3575C13.4627 41.4525 15.9379 41 18.6137 41C21.323 41 23.8148 41.4693 26.0893 42.4078C28.3972 43.3128 30.3539 44.6704 31.9593 46.4804L28.6982 49.648C27.3603 48.2402 25.8551 47.2011 24.1827 46.5307C22.5103 45.8268 20.7209 45.4749 18.8144 45.4749C16.841 45.4749 15.0013 45.8101 13.2955 46.4804C11.6231 47.1508 10.1681 48.0894 8.93055 49.2961C7.69299 50.5028 6.723 51.9441 6.0206 53.6201C5.35164 55.2626 5.01717 57.0559 5.01717 59C5.01717 60.9441 5.35164 62.7542 6.0206 64.4302C6.723 66.0726 7.69299 67.4972 8.93055 68.7039C10.1681 69.9106 11.6231 70.8492 13.2955 71.5196C15.0013 72.1899 16.841 72.5251 18.8144 72.5251C20.7209 72.5251 22.5103 72.1899 24.1827 71.5196C25.8551 70.8156 27.3603 69.743 28.6982 68.3017L31.9593 71.4693C30.3539 73.2793 28.3972 74.6536 26.0893 75.5922C23.8148 76.5307 21.3062 77 18.5635 77Z" fill="#1E1E1E"/>
<path d="M69.5849 76.5978V63.1229L70.7389 66.2402L55.6372 41.4022H61.0056L73.699 62.3687H70.7891L83.5327 41.4022H88.4997L73.4482 66.2402L74.5519 63.1229V76.5978H69.5849Z" fill="#1E1E1E"/>
<path d="M115.579 76.5978V41.4022H129.276C132.353 41.4022 134.979 41.8883 137.153 42.8603C139.327 43.8324 141 45.2402 142.17 47.0838C143.341 48.9274 143.926 51.1229 143.926 53.6704C143.926 56.2179 143.341 58.4134 142.17 60.257C141 62.067 139.327 63.4749 137.153 64.4804C134.979 65.4525 132.353 65.9385 129.276 65.9385H118.339L120.597 63.5754V76.5978H115.579ZM120.597 64.0782L118.339 61.5642H129.126C132.337 61.5642 134.762 60.8771 136.401 59.5028C138.073 58.1285 138.909 56.1844 138.909 53.6704C138.909 51.1564 138.073 49.2123 136.401 47.838C134.762 46.4637 132.337 45.7765 129.126 45.7765H118.339L120.597 43.2626V64.0782Z" fill="#1E1E1E"/>
<path d="M173.875 76.5978V41.4022H187.571C190.649 41.4022 193.274 41.8883 195.448 42.8603C197.622 43.8324 199.295 45.2402 200.466 47.0838C201.636 48.9274 202.222 51.1229 202.222 53.6704C202.222 56.2179 201.636 58.4134 200.466 60.257C199.295 62.067 197.622 63.4581 195.448 64.4302C193.274 65.4022 190.649 65.8883 187.571 65.8883H176.634L178.892 63.5754V76.5978H173.875ZM197.355 76.5978L188.424 63.8268H193.793L202.824 76.5978H197.355ZM178.892 64.0782L176.634 61.6145H187.421C190.632 61.6145 193.057 60.9274 194.696 59.5531C196.368 58.1453 197.204 56.1844 197.204 53.6704C197.204 51.1564 196.368 49.2123 194.696 47.838C193.057 46.4637 190.632 45.7765 187.421 45.7765H176.634L178.892 43.2626V64.0782Z" fill="#1E1E1E"/>
<path d="M247.454 77C242.839 77 239.21 75.676 236.567 73.0279C233.925 70.3799 232.604 66.5084 232.604 61.4134V41.4022H237.621V61.2123C237.621 65.1341 238.474 68 240.18 69.8101C241.919 71.6201 244.361 72.5251 247.505 72.5251C250.682 72.5251 253.124 71.6201 254.83 69.8101C256.569 68 257.439 65.1341 257.439 61.2123V41.4022H262.305V61.4134C262.305 66.5084 260.984 70.3799 258.342 73.0279C255.733 75.676 252.104 77 247.454 77Z" fill="#1E1E1E"/>
<path d="M305.403 77C302.728 77 300.169 76.5978 297.727 75.7933C295.286 74.9553 293.362 73.8827 291.957 72.5754L293.814 68.6536C295.152 69.8268 296.858 70.7989 298.931 71.5698C301.005 72.3408 303.162 72.7263 305.403 72.7263C307.444 72.7263 309.099 72.4916 310.37 72.0223C311.641 71.5531 312.578 70.9162 313.18 70.1117C313.782 69.2737 314.083 68.3352 314.083 67.2961C314.083 66.0894 313.682 65.1173 312.879 64.3799C312.11 63.6425 311.09 63.0559 309.819 62.6201C308.581 62.1508 307.21 61.7486 305.704 61.4134C304.199 61.0782 302.677 60.6927 301.139 60.257C299.634 59.7877 298.246 59.2011 296.975 58.4972C295.737 57.7933 294.734 56.8547 293.964 55.6816C293.195 54.4749 292.81 52.933 292.81 51.0559C292.81 49.2458 293.279 47.5866 294.215 46.0782C295.185 44.5363 296.657 43.3128 298.63 42.4078C300.637 41.4693 303.179 41 306.256 41C308.297 41 310.32 41.2682 312.327 41.8045C314.334 42.3408 316.073 43.1117 317.545 44.1173L315.889 48.1397C314.384 47.1341 312.795 46.4134 311.123 45.9777C309.451 45.5084 307.828 45.2737 306.256 45.2737C304.283 45.2737 302.661 45.5251 301.39 46.0279C300.119 46.5307 299.182 47.2011 298.58 48.0391C298.012 48.8771 297.727 49.8156 297.727 50.8547C297.727 52.095 298.112 53.0838 298.881 53.8212C299.684 54.5587 300.704 55.1453 301.942 55.581C303.213 56.0168 304.601 56.419 306.106 56.7877C307.611 57.1229 309.116 57.5084 310.621 57.9441C312.16 58.3799 313.548 58.9497 314.786 59.6536C316.057 60.3575 317.077 61.2961 317.846 62.4693C318.615 63.6425 319 65.1508 319 66.9944C319 68.7709 318.515 70.4302 317.545 71.9721C316.575 73.4804 315.07 74.7039 313.03 75.6425C311.023 76.5475 308.481 77 305.403 77Z" fill="#1E1E1E"/>
<path d="M399.756 3.01664C399.756 2.69343 399.756 2.37022 399.647 2.047C399.539 1.61606 399.321 1.18511 398.996 0.861898C398.67 0.430949 398.236 0.215478 397.693 0.107742C397.476 0 397.259 0 397.042 0C396.825 0 396.608 0 396.39 0C395.739 0.107742 395.088 0.323213 394.545 0.646426C394.002 0.861898 393.568 1.18511 393.134 1.50832C392.265 2.047 391.397 2.69343 390.637 3.44758C389.117 4.74043 387.814 6.14101 386.511 7.64933C385.209 9.15765 383.906 10.666 382.712 12.282C380.324 15.4064 378.044 18.5308 375.981 21.8706C373.81 25.2105 371.856 28.5503 370.119 32.1056C369.142 33.8294 368.273 35.5532 367.514 37.3847C366.645 39.1085 365.885 40.9401 365.234 42.7716C363.714 46.5424 362.628 50.3132 361.76 54.1917C361.434 56.2387 361.109 58.2857 361 60.225C361 61.3024 361 62.3797 361 63.3494C361.109 64.4267 361.109 65.3964 361.326 66.4737C361.543 68.6285 362.194 70.7832 363.171 72.7225C363.714 73.7998 364.365 74.6617 365.234 75.5236C366.211 76.3855 367.296 77.0319 368.599 77.4629C369.142 77.5706 369.793 77.6784 370.445 77.7861C370.662 77.7861 370.987 77.7861 371.313 77.7861C371.639 77.7861 371.856 77.7861 372.182 77.6784C373.267 77.5706 374.353 77.3552 375.438 77.0319C377.392 76.2778 379.347 75.0927 380.975 73.6921C382.495 72.3993 383.906 70.9987 385.209 69.3826C386.403 67.8743 387.597 66.2583 388.683 64.6422C389.768 63.0261 390.745 61.3024 391.831 59.6863L393.242 57.2083C393.785 56.3465 394.219 55.4846 394.762 54.8381V54.7304C395.088 54.2994 394.979 53.653 394.545 53.3298C394.002 53.0066 393.351 53.1143 393.025 53.5453C392.374 54.2994 391.831 55.1613 391.288 55.9155L389.66 58.3935C388.683 60.0095 387.597 61.5178 386.403 63.0261C385.317 64.5345 384.123 66.0428 382.82 67.4434C381.626 68.7362 380.324 70.029 378.804 71.1064C377.501 72.1838 375.981 73.0457 374.244 73.5844C373.484 73.7998 372.724 73.9076 371.856 74.0153C371.639 74.0153 371.53 74.0153 371.313 74.0153C371.096 74.0153 370.879 74.0153 370.77 73.9076C370.445 73.9076 370.119 73.7999 369.793 73.6921C369.142 73.4766 368.599 73.1534 368.056 72.6147C367.622 72.0761 367.188 71.5374 366.862 70.7832C366.211 69.2749 365.885 67.6588 365.777 65.935C365.451 62.3797 365.994 58.8244 366.754 55.2691C366.971 54.084 367.296 53.0066 367.622 51.8215C370.228 49.99 372.616 47.943 374.787 45.6805C377.501 42.8793 380.106 39.9704 382.495 36.8461C384.883 33.7217 387.163 30.5973 389.225 27.3652C391.288 24.0254 393.242 20.6855 394.979 17.2379C395.956 15.5141 396.716 13.6826 397.476 11.8511C398.236 10.0195 398.887 8.18801 399.43 6.24875C399.539 5.71006 399.647 5.27912 399.756 4.74043C399.756 4.20175 399.864 3.55532 399.756 3.01664ZM397.042 2.80116C397.042 2.69343 397.042 2.69343 397.042 2.80116V2.80116ZM397.259 4.41722C397.15 4.84817 397.15 5.27911 397.042 5.71006C396.608 7.54159 396.065 9.37312 395.413 11.0969C394.653 12.8207 393.894 14.5445 393.134 16.2683C391.397 19.7159 389.551 23.0557 387.489 26.2878C385.534 29.5199 383.363 32.6443 380.975 35.6609C379.781 37.1693 378.587 38.6776 377.392 40.0782C376.09 41.5865 374.787 42.9871 373.484 44.2799C371.856 45.7882 370.336 47.1888 368.599 48.5894C369.033 47.2965 369.468 45.896 370.01 44.6031C372.724 37.6002 376.09 30.8128 379.998 24.3486C381.952 21.0087 384.015 17.8843 386.186 14.76C387.271 13.2517 388.357 11.7433 389.551 10.235C390.203 9.48085 390.745 8.83443 391.397 8.08028C391.939 7.43385 392.591 6.6797 393.242 6.03327C393.894 5.38685 394.545 4.74043 395.196 4.20175C395.413 3.87853 395.739 3.66306 396.173 3.33985C396.39 3.23211 396.716 3.01664 396.933 2.9089H397.042C397.15 3.01664 397.15 3.12438 397.15 3.23211C397.259 3.66306 397.259 3.98627 397.259 4.41722Z" fill="#EFA130"/>
<path d="M423.247 53.4375C423.03 53.2221 422.813 53.1143 422.487 53.2221C422.161 53.2221 421.944 53.3298 421.727 53.5453C420.316 55.1613 418.687 56.7774 416.951 58.178C415.322 59.6863 413.477 60.9791 411.631 62.272C409.786 63.5648 407.832 64.5345 405.877 65.5041C404.9 65.8273 403.923 66.1505 402.838 66.4737C401.861 66.6892 400.884 66.7969 399.907 66.6892C399.038 66.6892 398.17 66.4737 397.41 66.0428C396.867 65.7196 396.324 65.2886 396.107 64.6422C395.89 63.9958 395.781 63.2416 395.781 62.3797C395.781 61.5178 395.89 60.5482 395.999 59.5786C396.433 57.6393 396.976 55.5923 397.627 53.653C397.953 52.5757 398.387 51.606 398.713 50.6364C399.038 49.559 399.472 48.5894 399.798 47.6198V47.512C400.232 46.5424 399.798 45.3573 398.821 44.9263C397.844 44.3876 396.758 44.6031 395.999 45.465C395.239 46.4347 394.587 47.4043 394.044 48.4817C393.393 49.559 392.959 50.6364 392.525 51.7138C391.548 53.9762 390.896 56.4542 390.571 58.8244C390.353 60.1172 390.353 61.5178 390.462 62.8107C390.679 64.319 391.113 65.7196 391.982 67.0124C392.416 67.7666 392.959 68.413 393.61 68.8439C394.262 69.3826 395.022 69.7058 395.781 70.029C396.541 70.2445 397.193 70.3523 397.953 70.46C398.604 70.46 399.364 70.46 400.015 70.3523C401.318 70.2445 402.512 69.9213 403.815 69.4904C404.9 69.0594 405.986 68.6285 407.072 67.982C409.134 66.9047 411.197 65.6118 413.042 64.2112C414.888 62.8107 416.625 61.3024 418.362 59.794C420.099 58.178 421.727 56.6697 423.356 54.9459C423.573 54.7304 423.681 54.4072 423.573 54.1917C423.573 53.8685 423.464 53.653 423.247 53.4375ZM399.255 42.7716C400.341 43.2025 401.535 42.5561 401.969 41.4787C402.078 41.2633 402.186 40.9401 402.295 40.7246L402.621 39.8627C402.946 39.2163 403.163 38.6776 403.489 38.0312V37.9234C403.815 37.277 403.706 36.4151 403.163 35.7687C402.729 35.1223 401.969 34.9068 401.101 35.0145C400.341 35.1223 399.69 35.5532 399.472 36.3074C399.147 36.9538 398.93 37.4925 398.713 38.1389C398.495 38.4621 398.387 38.6776 398.278 39.1085C398.17 39.4317 397.953 39.755 397.844 40.1859C397.518 41.2633 398.17 42.4484 399.255 42.7716Z" fill="#EFA130"/>
<path d="M453.179 53.653C452.853 53.3298 452.202 53.2221 451.876 53.5453C450.791 54.4072 449.705 55.1613 448.511 55.8078C447.317 56.4542 446.014 57.1006 444.711 57.6393C442.106 58.8244 439.5 59.794 436.895 60.5482C434.181 61.4101 431.467 62.1642 428.753 62.7029C427.342 63.0261 426.039 63.2416 424.628 63.4571C423.868 63.5648 423.108 63.5648 422.348 63.6726C423.868 58.9321 425.496 54.1917 427.233 49.559C427.885 48.0507 428.427 46.4346 429.079 44.9263C429.621 43.418 430.273 41.9097 430.924 40.4014C432.227 37.3847 433.638 34.3681 435.158 31.4592C435.809 30.0586 436.678 28.658 437.438 27.2575C437.872 26.611 438.306 25.9646 438.849 25.3182C439.175 24.7795 439.718 24.2408 440.26 23.7021C440.369 23.4867 440.586 23.3789 440.803 23.1635C440.912 23.1635 441.02 23.1635 441.02 23.1635V23.0557C441.02 23.0557 441.02 23.0557 441.129 23.0557C441.237 23.2712 441.346 23.4867 441.346 23.7021C441.563 24.3486 441.563 25.1027 441.563 25.8569C441.672 26.611 441.563 27.4729 441.672 28.3348C441.672 28.9813 442.214 29.5199 442.866 29.5199C443.517 29.5199 444.06 28.9813 444.06 28.3348C444.168 27.5807 444.277 26.7188 444.277 25.8569C444.386 24.995 444.386 24.0254 444.277 23.0557C444.168 22.517 443.951 21.8706 443.626 21.3319C443.409 21.0087 443.191 20.6855 442.866 20.47C442.431 20.2546 442.106 20.0391 441.672 20.0391C441.563 19.9313 441.454 19.9313 441.346 19.9313C441.346 19.9313 441.237 19.9313 441.129 19.9313C440.912 19.9313 440.695 19.9313 440.477 19.9313C440.152 19.9313 439.717 20.0391 439.392 20.2546C438.958 20.47 438.415 20.7932 437.981 21.1165C437.221 21.7629 436.569 22.4093 436.026 23.1635C435.375 23.8099 434.832 24.564 434.398 25.2105C433.312 26.611 432.444 28.1194 431.576 29.5199C428.21 35.4455 425.279 41.5865 422.782 47.8352C420.285 54.084 418.114 60.4405 416.269 66.9047C415.4 70.1368 414.532 73.4766 413.772 76.7087C413.12 80.0486 412.469 83.3884 411.926 86.7283C411.492 90.0681 411.166 93.408 410.949 96.7478C410.841 98.4716 410.841 100.195 410.841 101.919C410.841 102.35 410.841 102.673 410.841 103.212C410.841 103.643 410.841 104.074 410.949 104.505C410.949 105.367 411.058 106.229 411.275 107.091C411.383 107.952 411.601 108.922 411.818 109.784C412.035 110.646 412.469 111.508 412.903 112.37C413.12 112.801 413.446 113.232 413.772 113.663C414.097 114.201 414.64 114.524 415.292 114.848C415.726 114.955 416.16 115.063 416.594 114.955C417.029 114.955 417.463 114.848 417.788 114.632C418.223 114.309 418.657 113.878 419.091 113.447C419.634 112.693 420.068 111.831 420.502 110.969C420.828 110.215 421.154 109.353 421.48 108.599C422.131 106.983 422.565 105.367 422.999 103.751C423.434 102.135 423.868 100.411 424.193 98.7948C424.519 97.1788 424.845 95.455 425.062 93.8389C425.605 90.4991 425.93 87.1592 426.039 83.7116C426.039 82.0956 426.039 80.3718 426.039 78.648C425.93 77.032 425.822 75.3082 425.605 73.5844C425.279 71.8606 424.953 70.1368 424.302 68.5207C424.085 67.982 423.868 67.3356 423.542 66.7969C424.085 66.6892 424.628 66.5815 425.171 66.4737C426.582 66.2583 427.993 65.935 429.404 65.6118C432.227 64.8577 434.941 63.9958 437.655 63.0261C440.369 62.0565 443.083 60.8714 445.688 59.6863C446.991 59.0399 448.294 58.2857 449.488 57.5316C450.791 56.7774 451.985 55.9155 453.07 54.9459C453.396 54.6227 453.396 53.9762 453.179 53.653ZM423.868 83.7116C423.759 86.9438 423.434 90.2836 422.891 93.5157C422.348 96.7478 421.588 99.8722 420.72 103.104C420.177 104.613 419.743 106.121 419.091 107.629C418.766 108.383 418.44 109.138 418.114 109.784C417.788 110.43 417.354 111.077 416.92 111.616C416.703 111.831 416.594 112.046 416.377 112.154C416.269 112.046 416.16 111.939 416.052 111.831C415.834 111.508 415.726 111.292 415.617 110.969C415.292 110.323 415.074 109.676 414.857 108.922C414.749 108.168 414.64 107.414 414.532 106.66C414.423 105.905 414.423 105.151 414.423 104.289C414.423 103.966 414.423 103.535 414.423 103.104V101.919C414.532 100.303 414.64 98.6871 414.749 97.071C415.075 93.8389 415.617 90.6068 416.269 87.3747C417.463 80.9105 419.091 74.554 420.937 68.3053C421.045 67.982 421.154 67.6588 421.262 67.3356C421.588 67.982 421.914 68.6285 422.239 69.3826C422.782 70.7832 423.216 72.3993 423.434 73.9076C423.868 77.1397 424.085 80.4795 423.868 83.7116Z" fill="#EFA130"/>
<path d="M490.783 53.5453C490.566 53.3298 490.24 53.1143 490.023 53.1143C489.697 53.1143 489.372 53.1143 489.154 53.3298C487.635 54.4072 486.115 55.4846 484.595 56.4542C483.075 57.5316 481.555 58.5012 480.035 59.4708C476.996 61.4101 473.739 63.0261 470.374 64.319C468.745 64.9654 467.008 65.5041 465.271 65.935C463.643 66.2582 462.015 66.366 460.278 66.2582C459.518 66.2582 458.758 66.0428 457.998 65.8273C457.347 65.6118 456.695 65.2886 456.152 64.8577C455.067 64.1035 454.415 62.9184 454.307 61.7333C454.307 61.4101 454.198 61.0869 454.198 60.7637C454.198 60.4405 454.198 60.0095 454.307 59.6863C454.415 58.9321 454.524 58.178 454.633 57.4238C454.741 56.9929 454.85 56.5619 454.958 56.2387C456.695 56.4542 458.541 56.3465 460.278 55.8078C462.34 55.1613 464.077 53.9762 465.489 52.3602C466.248 51.4983 466.791 50.5287 467.225 49.559C467.443 49.0203 467.66 48.4816 467.768 47.8352C467.877 47.1888 467.877 46.5424 467.877 45.896C467.768 45.1418 467.443 44.3876 467.008 43.7412C466.791 43.418 466.466 43.0948 466.031 42.7716C465.706 42.5561 465.271 42.3406 464.946 42.1252C464.511 42.0174 464.077 42.0174 463.752 41.9097C463.534 41.9097 463.317 41.9097 463.1 41.9097C462.992 41.9097 462.775 41.9097 462.666 41.9097C462.015 42.0174 461.363 42.1252 460.82 42.2329C459.735 42.5561 458.649 42.9871 457.672 43.6335C456.804 44.1722 455.935 44.7109 455.067 45.465C451.701 48.2662 449.53 52.1447 448.879 56.3464C448.77 56.8851 448.77 57.4238 448.77 57.9625C448.77 58.5012 448.662 59.0399 448.77 59.5786C448.77 60.1172 448.77 60.6559 448.879 61.3024C448.987 61.841 449.096 62.4875 449.313 63.0261C449.639 64.2113 450.182 65.2886 450.942 66.2582C451.701 67.2279 452.678 67.982 453.764 68.5207C454.741 69.0594 455.827 69.4904 457.021 69.7058C457.998 69.9213 459.083 70.029 460.169 70.029C462.123 69.9213 464.186 69.5981 466.14 69.0594C467.985 68.5207 469.722 67.8743 471.568 67.0124C473.305 66.2582 474.933 65.3964 476.562 64.4267C478.19 63.5648 479.818 62.4875 481.338 61.5178C482.858 60.5482 484.486 59.4708 486.006 58.3935C487.526 57.3161 488.937 56.2387 490.457 55.1613C490.783 54.9459 490.891 54.7304 491 54.4072C491 54.084 490.891 53.7608 490.783 53.5453ZM456.152 53.1143C456.912 51.7138 457.781 50.4209 458.758 49.3435C459.301 48.6971 459.843 48.1584 460.495 47.7275C461.038 47.1888 461.58 46.8656 462.34 46.5424C462.666 46.3269 463.1 46.2192 463.643 46.1114C463.643 46.2192 463.643 46.1114 463.752 46.1114C463.752 46.2192 463.86 46.4346 463.86 46.5424C463.969 47.0811 463.969 47.7275 463.752 48.2662C463.643 49.0203 463.317 49.6668 462.883 50.3132C462.449 50.9596 461.906 51.606 461.363 52.037C460.712 52.5757 460.061 53.0066 459.301 53.3298C458.215 53.7608 456.912 54.084 455.718 54.084C455.827 53.7608 456.044 53.4375 456.152 53.1143Z" fill="#EFA130"/>
</svg>
