<svg width="289" height="55" viewBox="0 0 289 55" fill="none" xmlns="http://www.w3.org/2000/svg">
<path d="M68.7639 36.6521C67.5161 36.6521 66.3619 36.4494 65.3012 36.0438C64.2562 35.6227 63.3437 35.0378 62.5638 34.2891C61.7995 33.5248 61.199 32.6357 60.7623 31.6219C60.3255 30.608 60.1072 29.4928 60.1072 28.2761C60.1072 27.0595 60.3255 25.9443 60.7623 24.9304C61.199 23.9166 61.8073 23.0353 62.5872 22.2866C63.3671 21.5223 64.2796 20.9374 65.3246 20.5319C66.3853 20.1107 67.5395 19.9001 68.7873 19.9001C70.0507 19.9001 71.2128 20.1185 72.2734 20.5553C73.3497 20.9764 74.2621 21.6081 75.0108 22.4504L73.49 23.9244C72.8661 23.2693 72.1642 22.7857 71.3844 22.4738C70.6045 22.1462 69.77 21.9824 68.8809 21.9824C67.9606 21.9824 67.1028 22.1384 66.3073 22.4504C65.5274 22.7623 64.8489 23.1991 64.2718 23.7606C63.6947 24.3221 63.2423 24.9928 62.9148 25.7727C62.6028 26.537 62.4468 27.3715 62.4468 28.2761C62.4468 29.1808 62.6028 30.0231 62.9148 30.803C63.2423 31.5673 63.6947 32.2302 64.2718 32.7917C64.8489 33.3532 65.5274 33.7899 66.3073 34.1019C67.1028 34.4139 67.9606 34.5698 68.8809 34.5698C69.77 34.5698 70.6045 34.4139 71.3844 34.1019C72.1642 33.7743 72.8661 33.2752 73.49 32.6045L75.0108 34.0785C74.2621 34.9208 73.3497 35.5603 72.2734 35.997C71.2128 36.4338 70.0429 36.6521 68.7639 36.6521Z" fill="white"/>
<path d="M92.5568 36.465V30.1947L93.095 31.6453L86.0526 20.0873H88.556L94.4754 29.8437H93.1184L99.0611 20.0873H101.377L94.3584 31.6453L94.8731 30.1947V36.465H92.5568Z" fill="white"/>
<path d="M114.006 36.465V20.0873H120.393C121.828 20.0873 123.052 20.3135 124.066 20.7658C125.08 21.2182 125.86 21.8733 126.406 22.7311C126.952 23.589 127.225 24.6107 127.225 25.7961C127.225 26.9815 126.952 28.0032 126.406 28.8611C125.86 29.7033 125.08 30.3584 124.066 30.8264C123.052 31.2787 121.828 31.5049 120.393 31.5049H115.292L116.345 30.4052V36.465H114.006ZM116.345 30.6392L115.292 29.4694H120.323C121.82 29.4694 122.951 29.1496 123.715 28.5101C124.495 27.8706 124.885 26.9659 124.885 25.7961C124.885 24.6263 124.495 23.7216 123.715 23.0821C122.951 22.4426 121.82 22.1228 120.323 22.1228H115.292L116.345 20.953V30.6392Z" fill="white"/>
<path d="M141.19 36.465V20.0873H147.578C149.013 20.0873 150.237 20.3135 151.251 20.7658C152.265 21.2182 153.045 21.8733 153.591 22.7311C154.137 23.589 154.409 24.6107 154.409 25.7961C154.409 26.9815 154.137 28.0032 153.591 28.8611C153.045 29.7033 152.265 30.3506 151.251 30.803C150.237 31.2553 149.013 31.4815 147.578 31.4815H142.477L143.53 30.4052V36.465H141.19ZM152.14 36.465L147.975 30.5222H150.479L154.69 36.465H152.14ZM143.53 30.6392L142.477 29.4928H147.507C149.005 29.4928 150.136 29.173 150.9 28.5335C151.68 27.8784 152.07 26.9659 152.07 25.7961C152.07 24.6263 151.68 23.7216 150.9 23.0821C150.136 22.4426 149.005 22.1228 147.507 22.1228H142.477L143.53 20.953V30.6392Z" fill="white"/>
<path d="M175.503 36.6521C173.351 36.6521 171.658 36.036 170.426 34.8038C169.194 33.5716 168.578 31.77 168.578 29.3992V20.0873H170.917V29.3056C170.917 31.1305 171.315 32.4641 172.11 33.3064C172.922 34.1487 174.06 34.5698 175.526 34.5698C177.008 34.5698 178.147 34.1487 178.942 33.3064C179.753 32.4641 180.159 31.1305 180.159 29.3056V20.0873H182.428V29.3992C182.428 31.77 181.812 33.5716 180.58 34.8038C179.363 36.036 177.671 36.6521 175.503 36.6521Z" fill="white"/>
<path d="M202.526 36.6521C201.279 36.6521 200.085 36.465 198.947 36.0906C197.808 35.7007 196.911 35.2015 196.256 34.5932L197.122 32.7683C197.746 33.3142 198.541 33.7665 199.508 34.1253C200.475 34.484 201.481 34.6634 202.526 34.6634C203.478 34.6634 204.25 34.5542 204.843 34.3359C205.435 34.1175 205.872 33.8211 206.153 33.4468C206.434 33.0568 206.574 32.6201 206.574 32.1366C206.574 31.5751 206.387 31.1227 206.013 30.7796C205.654 30.4364 205.178 30.1635 204.585 29.9607C204.008 29.7423 203.369 29.5552 202.667 29.3992C201.965 29.2432 201.255 29.0638 200.538 28.8611C199.836 28.6427 199.189 28.3697 198.596 28.0422C198.019 27.7146 197.551 27.2779 197.192 26.732C196.833 26.1704 196.654 25.4529 196.654 24.5795C196.654 23.7372 196.872 22.9651 197.309 22.2632C197.761 21.5457 198.448 20.9764 199.368 20.5553C200.304 20.1185 201.489 19.9001 202.924 19.9001C203.876 19.9001 204.819 20.0249 205.755 20.2745C206.691 20.5241 207.502 20.8828 208.188 21.3507L207.416 23.2225C206.714 22.7545 205.974 22.4192 205.194 22.2164C204.414 21.998 203.657 21.8889 202.924 21.8889C202.004 21.8889 201.247 22.0058 200.655 22.2398C200.062 22.4738 199.625 22.7857 199.345 23.1757C199.079 23.5656 198.947 24.0024 198.947 24.4859C198.947 25.063 199.126 25.5231 199.485 25.8663C199.859 26.2094 200.335 26.4824 200.912 26.6852C201.505 26.8879 202.152 27.0751 202.854 27.2467C203.556 27.4027 204.258 27.582 204.96 27.7848C205.677 27.9876 206.325 28.2527 206.902 28.5803C207.494 28.9078 207.97 29.3446 208.329 29.8905C208.688 30.4364 208.867 31.1383 208.867 31.9962C208.867 32.8229 208.641 33.595 208.188 34.3125C207.736 35.0144 207.034 35.5837 206.083 36.0204C205.147 36.4416 203.961 36.6521 202.526 36.6521Z" fill="white"/>
<path d="M246.56 2.02126C246.56 1.87011 246.56 1.71895 246.51 1.56779C246.459 1.36625 246.358 1.16471 246.207 1.01356C246.055 0.812015 245.853 0.711246 245.601 0.660861C245.5 0.610474 245.399 0.610474 245.298 0.610474C245.197 0.610474 245.096 0.610474 244.995 0.610474C244.692 0.660861 244.389 0.76163 244.136 0.912787C243.884 1.01356 243.682 1.16471 243.48 1.31587C243.076 1.56779 242.672 1.87011 242.319 2.2228C241.612 2.82742 241.006 3.48243 240.4 4.18782C239.794 4.89322 239.188 5.59861 238.632 6.35439C237.522 7.81556 236.461 9.27673 235.502 10.8387C234.492 12.4006 233.583 13.9626 232.775 15.6253C232.321 16.4314 231.917 17.2376 231.563 18.0941C231.159 18.9003 230.806 19.7568 230.503 20.6134C229.796 22.3769 229.291 24.1404 228.887 25.9542C228.736 26.9115 228.584 27.8689 228.534 28.7758C228.534 29.2796 228.534 29.7835 228.534 30.237C228.584 30.7408 228.584 31.1943 228.685 31.6981C228.786 32.7058 229.089 33.7135 229.544 34.6205C229.796 35.1243 230.099 35.5274 230.503 35.9305C230.957 36.3336 231.462 36.6359 232.068 36.8374C232.321 36.8878 232.624 36.9382 232.927 36.9886C233.028 36.9886 233.179 36.9886 233.331 36.9886C233.482 36.9886 233.583 36.9886 233.735 36.9382C234.24 36.8878 234.744 36.787 235.249 36.6359C236.158 36.2832 237.067 35.729 237.825 35.0739C238.532 34.4693 239.188 33.8143 239.794 33.0585C240.349 32.3531 240.905 31.5974 241.41 30.8416C241.915 30.0858 242.369 29.2796 242.874 28.5239L243.53 27.365C243.783 26.9619 243.985 26.5588 244.237 26.2565V26.2062C244.389 26.0046 244.338 25.7023 244.136 25.5511C243.884 25.4 243.581 25.4504 243.429 25.6519C243.126 26.0046 242.874 26.4077 242.622 26.7604L241.864 27.9192C241.41 28.675 240.905 29.3804 240.349 30.0858C239.844 30.7912 239.289 31.4966 238.683 32.1516C238.128 32.7562 237.522 33.3609 236.815 33.8647C236.209 34.3686 235.502 34.7716 234.694 35.0236C234.341 35.1243 233.987 35.1747 233.583 35.2251C233.482 35.2251 233.432 35.2251 233.331 35.2251C233.23 35.2251 233.129 35.2251 233.078 35.1747C232.927 35.1747 232.775 35.1243 232.624 35.0739C232.321 34.9732 232.068 34.822 231.816 34.5701C231.614 34.3182 231.412 34.0662 231.26 33.7135C230.957 33.0082 230.806 32.2524 230.755 31.4462C230.604 29.7835 230.856 28.1208 231.21 26.4581C231.311 25.9038 231.462 25.4 231.614 24.8458C232.826 23.9892 233.937 23.0319 234.946 21.9738C236.209 20.6638 237.421 19.3034 238.532 17.8422C239.642 16.381 240.703 14.9199 241.662 13.4083C242.622 11.8464 243.53 10.2844 244.338 8.67211C244.793 7.86594 245.146 7.00939 245.5 6.15284C245.853 5.2963 246.156 4.43975 246.409 3.53282C246.459 3.28089 246.51 3.07935 246.56 2.82742C246.56 2.5755 246.611 2.27318 246.56 2.02126ZM245.298 1.92049C245.298 1.87011 245.298 1.87011 245.298 1.92049V1.92049ZM245.399 2.67627C245.348 2.87781 245.348 3.07935 245.298 3.28089C245.096 4.13744 244.843 4.99399 244.54 5.80015C244.187 6.60631 243.833 7.41248 243.48 8.21864C242.672 9.83097 241.814 11.3929 240.854 12.9045C239.945 14.416 238.935 15.8772 237.825 17.288C237.269 17.9934 236.714 18.6988 236.158 19.3538C235.552 20.0592 234.946 20.7142 234.341 21.3188C233.583 22.0242 232.876 22.6792 232.068 23.3342C232.27 22.7296 232.472 22.0746 232.725 21.4699C233.987 18.1949 235.552 15.0206 237.37 11.9975C238.279 10.4356 239.238 8.97442 240.248 7.51325C240.753 6.80785 241.258 6.10246 241.814 5.39707C242.117 5.04437 242.369 4.74206 242.672 4.38937C242.924 4.08705 243.227 3.73436 243.53 3.43204C243.833 3.12973 244.136 2.82742 244.439 2.5755C244.54 2.42434 244.692 2.32357 244.894 2.17242C244.995 2.12203 245.146 2.02126 245.247 1.97087H245.298C245.348 2.02126 245.348 2.07165 245.348 2.12203C245.399 2.32357 245.399 2.47473 245.399 2.67627Z" fill="#EFA130"/>
<path d="M257.486 25.6015C257.386 25.5008 257.285 25.4504 257.133 25.5008C256.982 25.5008 256.881 25.5511 256.78 25.6519C256.123 26.4077 255.366 27.1635 254.558 27.8185C253.8 28.5239 252.942 29.1285 252.084 29.7331C251.225 30.3377 250.316 30.7912 249.407 31.2447C248.953 31.3958 248.499 31.547 247.994 31.6981C247.539 31.7989 247.085 31.8493 246.63 31.7989C246.226 31.7989 245.822 31.6981 245.469 31.4966C245.216 31.3454 244.964 31.1439 244.863 30.8416C244.762 30.5393 244.712 30.1866 244.712 29.7835C244.712 29.3804 244.762 28.927 244.812 28.4735C245.014 27.5666 245.267 26.6092 245.57 25.7023C245.721 25.1984 245.923 24.745 246.075 24.2915C246.226 23.7877 246.428 23.3342 246.58 22.8807V22.8303C246.782 22.3769 246.58 21.8226 246.125 21.6211C245.671 21.3692 245.166 21.4699 244.812 21.873C244.459 22.3265 244.156 22.78 243.904 23.2838C243.601 23.7877 243.399 24.2915 243.197 24.7954C242.742 25.8535 242.439 27.0123 242.288 28.1208C242.187 28.7254 242.187 29.3804 242.237 29.985C242.338 30.6904 242.54 31.3454 242.944 31.9501C243.146 32.3028 243.399 32.6051 243.702 32.8066C244.005 33.0585 244.358 33.2097 244.712 33.3609C245.065 33.4616 245.368 33.512 245.721 33.5624C246.024 33.5624 246.378 33.5624 246.681 33.512C247.287 33.4616 247.842 33.3105 248.448 33.1089C248.953 32.9074 249.458 32.7058 249.963 32.4035C250.922 31.8997 251.882 31.2951 252.74 30.64C253.598 29.985 254.406 29.2796 255.214 28.5743C256.022 27.8185 256.78 27.1131 257.537 26.3069C257.638 26.2062 257.688 26.055 257.638 25.9542C257.638 25.8031 257.587 25.7023 257.486 25.6015ZM246.327 20.6134C246.832 20.8149 247.388 20.5126 247.59 20.0088C247.64 19.908 247.691 19.7568 247.741 19.6561L247.893 19.253C248.044 18.9507 248.145 18.6988 248.297 18.3964V18.3461C248.448 18.0438 248.398 17.6407 248.145 17.3384C247.943 17.036 247.59 16.9353 247.186 16.9857C246.832 17.036 246.529 17.2376 246.428 17.5903C246.277 17.8926 246.176 18.1445 246.075 18.4468C245.974 18.598 245.923 18.6988 245.873 18.9003C245.822 19.0515 245.721 19.2026 245.671 19.4042C245.519 19.908 245.822 20.4622 246.327 20.6134Z" fill="#EFA130"/>
<path d="M271.409 25.7023C271.257 25.5511 270.954 25.5008 270.803 25.6519C270.298 26.055 269.793 26.4077 269.237 26.71C268.682 27.0123 268.076 27.3146 267.47 27.5666C266.258 28.1208 265.046 28.5743 263.835 28.927C262.572 29.33 261.31 29.6827 260.047 29.9347C259.391 30.0858 258.785 30.1866 258.129 30.2874C257.775 30.3377 257.422 30.3377 257.068 30.3881C257.775 28.1712 258.533 25.9542 259.341 23.7877C259.644 23.0823 259.896 22.3265 260.199 21.6211C260.451 20.9157 260.754 20.2103 261.057 19.5049C261.663 18.0941 262.32 16.6833 263.027 15.3229C263.33 14.6679 263.734 14.0129 264.087 13.3579C264.289 13.0556 264.491 12.7533 264.743 12.451C264.895 12.1991 265.147 11.9471 265.4 11.6952C265.45 11.5944 265.551 11.5441 265.652 11.4433C265.703 11.4433 265.753 11.4433 265.753 11.4433C265.703 11.4433 265.753 11.4433 265.753 11.4433V11.3929C265.753 11.3929 265.753 11.3929 265.804 11.3929C265.854 11.4937 265.905 11.5944 265.905 11.6952C266.006 11.9975 266.006 12.3502 266.006 12.7029C266.056 13.0556 266.006 13.4587 266.056 13.8618C266.056 14.1641 266.309 14.416 266.612 14.416C266.915 14.416 267.167 14.1641 267.167 13.8618C267.218 13.5091 267.268 13.106 267.268 12.7029C267.319 12.2998 267.319 11.8464 267.268 11.3929C267.218 11.141 267.117 10.8387 266.965 10.5867C266.864 10.4356 266.763 10.2844 266.612 10.1837C266.41 10.0829 266.258 9.98212 266.056 9.98212C266.006 9.93174 265.955 9.93174 265.905 9.93174C265.905 9.93174 265.854 9.93174 265.804 9.93174C265.703 9.93174 265.602 9.93174 265.501 9.93174C265.349 9.93174 265.147 9.98212 264.996 10.0829C264.794 10.1837 264.541 10.3348 264.339 10.486C263.986 10.7883 263.683 11.0906 263.431 11.4433C263.128 11.7456 262.875 12.0983 262.673 12.4006C262.168 13.0556 261.764 13.761 261.36 14.416C259.795 17.1872 258.432 20.0592 257.27 22.9815C256.109 25.9038 255.099 28.8766 254.241 31.8997C253.837 33.4112 253.433 34.9732 253.079 36.4847C252.776 38.0467 252.473 39.6086 252.221 41.1706C252.019 42.7325 251.867 44.2944 251.766 45.8564C251.716 46.6625 251.716 47.4687 251.716 48.2749C251.716 48.4764 251.716 48.6276 251.716 48.8795C251.716 49.081 251.716 49.2826 251.766 49.4841C251.766 49.8872 251.817 50.2903 251.918 50.6934C251.968 51.0964 252.069 51.5499 252.17 51.953C252.271 52.3561 252.473 52.7591 252.675 53.1622C252.776 53.3638 252.928 53.5653 253.079 53.7668C253.231 54.0188 253.483 54.1699 253.786 54.3211C253.988 54.3715 254.19 54.4219 254.392 54.3715C254.594 54.3715 254.796 54.3211 254.948 54.2203C255.15 54.0692 255.352 53.8676 255.554 53.6661C255.806 53.3134 256.008 52.9103 256.21 52.5072C256.361 52.1545 256.513 51.7514 256.664 51.3987C256.967 50.643 257.169 49.8872 257.371 49.1314C257.573 48.3756 257.775 47.5695 257.927 46.8137C258.078 46.0579 258.23 45.2518 258.331 44.496C258.583 42.934 258.735 41.3721 258.785 39.7598C258.785 39.004 258.785 38.1978 258.785 37.3917C258.735 36.6359 258.684 35.8297 258.583 35.0236C258.432 34.2174 258.28 33.4112 257.977 32.6555C257.876 32.4035 257.775 32.1012 257.624 31.8493C257.876 31.7989 258.129 31.7485 258.381 31.6981C259.038 31.5974 259.694 31.4462 260.35 31.2951C261.663 30.9424 262.926 30.5393 264.188 30.0858C265.45 29.6323 266.713 29.0781 267.925 28.5239C268.53 28.2216 269.136 27.8689 269.692 27.5162C270.298 27.1635 270.853 26.7604 271.358 26.3069C271.51 26.1558 271.51 25.8535 271.409 25.7023ZM257.775 39.7598C257.725 41.2713 257.573 42.8333 257.321 44.3448C257.068 45.8564 256.715 47.3175 256.311 48.8291C256.058 49.5345 255.856 50.2399 255.554 50.9453C255.402 51.298 255.251 51.6507 255.099 51.953C254.948 52.2553 254.746 52.5576 254.544 52.8095C254.443 52.9103 254.392 53.0111 254.291 53.0615C254.241 53.0111 254.19 52.9607 254.14 52.9103C254.039 52.7591 253.988 52.6584 253.938 52.5072C253.786 52.2049 253.685 51.9026 253.584 51.5499C253.534 51.1972 253.483 50.8445 253.433 50.4918C253.382 50.1391 253.382 49.7864 253.382 49.3833C253.382 49.2322 253.382 49.0306 253.382 48.8291V48.2749C253.433 47.5191 253.483 46.7633 253.534 46.0075C253.685 44.496 253.938 42.9844 254.241 41.4729C254.796 38.4498 255.554 35.477 256.412 32.5547C256.462 32.4035 256.513 32.2524 256.563 32.1012C256.715 32.4035 256.866 32.7058 257.018 33.0585C257.27 33.7135 257.472 34.4693 257.573 35.1747C257.775 36.6863 257.876 38.2482 257.775 39.7598Z" fill="#EFA130"/>
<path d="M288.899 25.6519C288.798 25.5511 288.647 25.4504 288.546 25.4504C288.394 25.4504 288.243 25.4504 288.142 25.5511C287.435 26.055 286.728 26.5588 286.021 27.0123C285.314 27.5162 284.607 27.9696 283.9 28.4231C282.487 29.33 280.972 30.0858 279.406 30.6904C278.649 30.9927 277.841 31.2447 277.033 31.4462C276.276 31.5974 275.518 31.6478 274.71 31.5974C274.357 31.5974 274.004 31.4966 273.65 31.3958C273.347 31.2951 273.044 31.1439 272.792 30.9424C272.287 30.5897 271.984 30.0354 271.933 29.4812C271.933 29.33 271.883 29.1789 271.883 29.0277C271.883 28.8766 271.883 28.675 271.933 28.5239C271.984 28.1712 272.034 27.8185 272.085 27.4658C272.135 27.2642 272.186 27.0627 272.236 26.9115C273.044 27.0123 273.903 26.9619 274.71 26.71C275.67 26.4077 276.478 25.8535 277.134 25.0977C277.488 24.6946 277.74 24.2411 277.942 23.7877C278.043 23.5357 278.144 23.2838 278.195 22.9815C278.245 22.6792 278.245 22.3769 278.245 22.0746C278.195 21.7219 278.043 21.3692 277.841 21.0669C277.74 20.9157 277.589 20.7646 277.387 20.6134C277.235 20.5126 277.033 20.4119 276.882 20.3111C276.68 20.2607 276.478 20.2607 276.326 20.2103C276.225 20.2103 276.124 20.2103 276.023 20.2103C275.973 20.2103 275.872 20.2103 275.821 20.2103C275.518 20.2607 275.215 20.3111 274.963 20.3615C274.458 20.5126 273.953 20.7142 273.499 21.0165C273.095 21.2684 272.691 21.5203 272.287 21.873C270.721 23.183 269.712 24.9969 269.409 26.9619C269.358 27.2139 269.358 27.4658 269.358 27.7177C269.358 27.9696 269.308 28.2216 269.358 28.4735C269.358 28.7254 269.358 28.9773 269.409 29.2796C269.459 29.5316 269.51 29.8339 269.611 30.0858C269.762 30.64 270.015 31.1439 270.368 31.5974C270.721 32.0508 271.176 32.4035 271.681 32.6555C272.135 32.9074 272.64 33.1089 273.196 33.2097C273.65 33.3105 274.155 33.3609 274.66 33.3609C275.569 33.3105 276.528 33.1593 277.437 32.9074C278.296 32.6555 279.103 32.3531 279.962 31.9501C280.77 31.5974 281.527 31.1943 282.285 30.7408C283.042 30.3377 283.799 29.8339 284.506 29.3804C285.213 28.927 285.971 28.4231 286.678 27.9192C287.384 27.4154 288.041 26.9115 288.748 26.4077C288.899 26.3069 288.95 26.2062 289 26.055C289 25.9038 288.95 25.7527 288.899 25.6519ZM272.792 25.4504C273.145 24.7954 273.549 24.1907 274.004 23.6869C274.256 23.3846 274.509 23.1327 274.811 22.9311C275.064 22.6792 275.316 22.528 275.67 22.3769C275.821 22.2761 276.023 22.2257 276.276 22.1753C276.276 22.2257 276.276 22.1753 276.326 22.1753C276.326 22.2257 276.377 22.3265 276.377 22.3769C276.427 22.6288 276.427 22.9311 276.326 23.183C276.276 23.5357 276.124 23.838 275.922 24.1404C275.72 24.4427 275.468 24.745 275.215 24.9465C274.912 25.1984 274.609 25.4 274.256 25.5511C273.751 25.7527 273.145 25.9038 272.59 25.9038C272.64 25.7527 272.741 25.6015 272.792 25.4504Z" fill="#EFA130"/>
<path d="M60.1072 49.338V42.4433H62.7501C63.3438 42.4433 63.8505 42.5385 64.27 42.7289C64.6895 42.9194 65.0122 43.1951 65.2381 43.5563C65.464 43.9174 65.5769 44.3475 65.5769 44.8466C65.5769 45.3456 65.464 45.7757 65.2381 46.1369C65.0122 46.4915 64.6895 46.764 64.27 46.9544C63.8505 47.1448 63.3438 47.24 62.7501 47.24H60.6396L61.0753 46.787V49.338H60.1072ZM64.6379 49.338L62.9147 46.8362H63.9505L65.6931 49.338H64.6379ZM61.0753 46.8855L60.6396 46.4028H62.721C63.3406 46.4028 63.8085 46.2682 64.1248 45.999C64.4475 45.7232 64.6088 45.3391 64.6088 44.8466C64.6088 44.3541 64.4475 43.9733 64.1248 43.704C63.8085 43.4348 63.3406 43.3002 62.721 43.3002H60.6396L61.0753 42.8077V46.8855Z" fill="white"/>
<path d="M70.4422 45.4179H73.9273V46.2551H70.4422V45.4179ZM70.5293 48.4811H74.4791V49.338H69.5612V42.4433H74.3436V43.3002H70.5293V48.4811Z" fill="white"/>
<path d="M77.4408 49.338L80.5096 42.4433H81.468L84.5466 49.338H83.5301L80.7904 42.9949H81.1776L78.4379 49.338H77.4408ZM78.7477 47.6143L79.0091 46.8264H82.8234L83.1041 47.6143H78.7477Z" fill="white"/>
<path d="M87.9777 49.338V42.4433H88.9458V48.4811H92.6149V49.338H87.9777Z" fill="white"/>
<path d="M102.047 45.4179H105.532V46.2551H102.047V45.4179ZM102.134 48.4811H106.084V49.338H101.166V42.4433H105.948V43.3002H102.134V48.4811Z" fill="white"/>
<path d="M112.047 49.4168C111.53 49.4168 111.037 49.338 110.566 49.1804C110.094 49.0162 109.723 48.8061 109.452 48.55L109.81 47.7818C110.069 48.0116 110.398 48.202 110.798 48.353C111.198 48.5041 111.614 48.5796 112.047 48.5796C112.44 48.5796 112.76 48.5336 113.005 48.4417C113.25 48.3498 113.431 48.225 113.547 48.0674C113.663 47.9032 113.722 47.7194 113.722 47.5158C113.722 47.2794 113.644 47.089 113.489 46.9445C113.341 46.8001 113.144 46.6852 112.899 46.5998C112.66 46.5079 112.395 46.4291 112.105 46.3634C111.814 46.2978 111.521 46.2222 111.224 46.1369C110.933 46.045 110.666 45.93 110.42 45.7921C110.182 45.6543 109.988 45.4704 109.839 45.2406C109.691 45.0042 109.617 44.7021 109.617 44.3344C109.617 43.9798 109.707 43.6548 109.888 43.3593C110.075 43.0573 110.359 42.8176 110.74 42.6403C111.127 42.4564 111.618 42.3645 112.211 42.3645C112.605 42.3645 112.995 42.417 113.383 42.5221C113.77 42.6272 114.106 42.7782 114.39 42.9752L114.07 43.7631C113.78 43.5661 113.473 43.425 113.15 43.3396C112.828 43.2477 112.515 43.2017 112.211 43.2017C111.831 43.2017 111.517 43.251 111.272 43.3495C111.027 43.448 110.846 43.5793 110.73 43.7434C110.62 43.9076 110.566 44.0915 110.566 44.295C110.566 44.538 110.64 44.7317 110.788 44.8761C110.943 45.0206 111.14 45.1355 111.379 45.2209C111.624 45.3062 111.892 45.385 112.182 45.4573C112.473 45.5229 112.763 45.5984 113.054 45.6838C113.35 45.7692 113.618 45.8808 113.857 46.0187C114.102 46.1566 114.299 46.3404 114.448 46.5703C114.596 46.8001 114.67 47.0956 114.67 47.4567C114.67 47.8047 114.577 48.1298 114.39 48.4318C114.202 48.7273 113.912 48.967 113.518 49.1509C113.131 49.3281 112.64 49.4168 112.047 49.4168Z" fill="white"/>
<path d="M119.756 49.338V43.3002H117.432V42.4433H123.038V43.3002H120.714V49.338H119.756Z" fill="white"/>
<path d="M125.146 49.338L128.215 42.4433H129.173L132.252 49.338H131.235L128.495 42.9949H128.883L126.143 49.338H125.146ZM126.453 47.6143L126.714 46.8264H130.528L130.809 47.6143H126.453Z" fill="white"/>
<path d="M136.688 49.338V43.3002H134.365V42.4433H139.97V43.3002H137.647V49.338H136.688Z" fill="white"/>
<path d="M144.326 45.4179H147.811V46.2551H144.326V45.4179ZM144.413 48.4811H148.363V49.338H143.445V42.4433H148.227V43.3002H144.413V48.4811Z" fill="white"/>
<path d="M160.401 49.4168C159.884 49.4168 159.407 49.3314 158.968 49.1607C158.535 48.9834 158.158 48.7372 157.835 48.422C157.519 48.1002 157.27 47.7259 157.09 47.2991C156.909 46.8723 156.819 46.4028 156.819 45.8906C156.819 45.3785 156.909 44.909 157.09 44.4822C157.27 44.0553 157.522 43.6843 157.845 43.3692C158.167 43.0474 158.545 42.8012 158.977 42.6304C159.416 42.4531 159.894 42.3645 160.41 42.3645C160.933 42.3645 161.414 42.4564 161.853 42.6403C162.298 42.8176 162.676 43.0835 162.985 43.4381L162.356 44.0586C162.098 43.7828 161.807 43.5793 161.485 43.448C161.162 43.3101 160.817 43.2411 160.449 43.2411C160.068 43.2411 159.713 43.3068 159.384 43.4381C159.061 43.5694 158.781 43.7533 158.542 43.9897C158.303 44.2261 158.116 44.5084 157.98 44.8367C157.851 45.1585 157.787 45.5098 157.787 45.8906C157.787 46.2715 157.851 46.6261 157.98 46.9544C158.116 47.2762 158.303 47.5552 158.542 47.7916C158.781 48.028 159.061 48.2119 159.384 48.3432C159.713 48.4745 160.068 48.5402 160.449 48.5402C160.817 48.5402 161.162 48.4745 161.485 48.3432C161.807 48.2053 162.098 47.9952 162.356 47.7128L162.985 48.3333C162.676 48.6879 162.298 48.9571 161.853 49.141C161.414 49.3249 160.93 49.4168 160.401 49.4168Z" fill="white"/>
<path d="M169.704 49.4168C169.188 49.4168 168.707 49.3281 168.262 49.1509C167.823 48.9736 167.442 48.7273 167.119 48.4121C166.796 48.0904 166.545 47.7161 166.364 47.2893C166.183 46.8625 166.093 46.3963 166.093 45.8906C166.093 45.385 166.183 44.9188 166.364 44.492C166.545 44.0652 166.796 43.6942 167.119 43.379C167.442 43.0573 167.823 42.8077 168.262 42.6304C168.7 42.4531 169.181 42.3645 169.704 42.3645C170.22 42.3645 170.695 42.4531 171.127 42.6304C171.566 42.8012 171.947 43.0474 172.269 43.3692C172.599 43.6843 172.85 44.0553 173.025 44.4822C173.205 44.909 173.296 45.3785 173.296 45.8906C173.296 46.4028 173.205 46.8723 173.025 47.2991C172.85 47.7259 172.599 48.1002 172.269 48.422C171.947 48.7372 171.566 48.9834 171.127 49.1607C170.695 49.3314 170.22 49.4168 169.704 49.4168ZM169.704 48.5402C170.078 48.5402 170.424 48.4745 170.74 48.3432C171.063 48.2119 171.34 48.028 171.572 47.7916C171.811 47.5487 171.995 47.2663 172.124 46.9445C172.26 46.6228 172.328 46.2715 172.328 45.8906C172.328 45.5098 172.26 45.1585 172.124 44.8367C171.995 44.515 171.811 44.2359 171.572 43.9995C171.34 43.7566 171.063 43.5694 170.74 43.4381C170.424 43.3068 170.078 43.2411 169.704 43.2411C169.323 43.2411 168.971 43.3068 168.649 43.4381C168.333 43.5694 168.055 43.7566 167.816 43.9995C167.577 44.2359 167.39 44.515 167.255 44.8367C167.126 45.1585 167.061 45.5098 167.061 45.8906C167.061 46.2715 167.126 46.6228 167.255 46.9445C167.39 47.2663 167.577 47.5487 167.816 47.7916C168.055 48.028 168.333 48.2119 168.649 48.3432C168.971 48.4745 169.323 48.5402 169.704 48.5402Z" fill="white"/>
<path d="M177.196 49.338V42.4433H177.989L182.472 48.1068H182.055V42.4433H183.023V49.338H182.23L177.747 43.6745H178.164V49.338H177.196Z" fill="white"/>
<path d="M189.447 49.4168C188.931 49.4168 188.437 49.338 187.966 49.1804C187.495 49.0162 187.124 48.8061 186.853 48.55L187.211 47.7818C187.469 48.0116 187.798 48.202 188.198 48.353C188.598 48.5041 189.015 48.5796 189.447 48.5796C189.841 48.5796 190.16 48.5336 190.405 48.4417C190.651 48.3498 190.831 48.225 190.948 48.0674C191.064 47.9032 191.122 47.7194 191.122 47.5158C191.122 47.2794 191.044 47.089 190.889 46.9445C190.741 46.8001 190.544 46.6852 190.299 46.5998C190.06 46.5079 189.796 46.4291 189.505 46.3634C189.215 46.2978 188.921 46.2222 188.624 46.1369C188.334 46.045 188.066 45.93 187.821 45.7921C187.582 45.6543 187.388 45.4704 187.24 45.2406C187.091 45.0042 187.017 44.7021 187.017 44.3344C187.017 43.9798 187.107 43.6548 187.288 43.3593C187.475 43.0573 187.759 42.8176 188.14 42.6403C188.527 42.4564 189.018 42.3645 189.612 42.3645C190.005 42.3645 190.396 42.417 190.783 42.5221C191.17 42.6272 191.506 42.7782 191.79 42.9752L191.47 43.7631C191.18 43.5661 190.873 43.425 190.551 43.3396C190.228 43.2477 189.915 43.2017 189.612 43.2017C189.231 43.2017 188.918 43.251 188.673 43.3495C188.427 43.448 188.247 43.5793 188.13 43.7434C188.021 43.9076 187.966 44.0915 187.966 44.295C187.966 44.538 188.04 44.7317 188.188 44.8761C188.343 45.0206 188.54 45.1355 188.779 45.2209C189.024 45.3062 189.292 45.385 189.583 45.4573C189.873 45.5229 190.163 45.5984 190.454 45.6838C190.751 45.7692 191.019 45.8808 191.257 46.0187C191.503 46.1566 191.699 46.3404 191.848 46.5703C191.996 46.8001 192.071 47.0956 192.071 47.4567C192.071 47.8047 191.977 48.1298 191.79 48.4318C191.603 48.7273 191.312 48.967 190.918 49.1509C190.531 49.3281 190.041 49.4168 189.447 49.4168Z" fill="white"/>
<path d="M198.713 49.4168C197.822 49.4168 197.122 49.1574 196.612 48.6387C196.102 48.1199 195.847 47.3615 195.847 46.3634V42.4433H196.815V46.324C196.815 47.0923 196.98 47.6537 197.309 48.0083C197.644 48.3629 198.116 48.5402 198.722 48.5402C199.335 48.5402 199.807 48.3629 200.136 48.0083C200.471 47.6537 200.639 47.0923 200.639 46.324V42.4433H201.578V46.3634C201.578 47.3615 201.323 48.1199 200.813 48.6387C200.31 49.1574 199.61 49.4168 198.713 49.4168Z" fill="white"/>
<path d="M205.983 49.338V42.4433H206.951V48.4811H210.62V49.338H205.983Z" fill="white"/>
<path d="M214.864 49.338V43.3002H212.54V42.4433H218.145V43.3002H215.822V49.338H214.864Z" fill="white"/>
<path d="M221.62 49.338V42.4433H222.588V49.338H221.62Z" fill="white"/>
<path d="M227.037 49.338V42.4433H227.831L232.313 48.1068H231.897V42.4433H232.865V49.338H232.071L227.589 43.6745H228.005V49.338H227.037Z" fill="white"/>
<path d="M240.373 49.4168C239.85 49.4168 239.369 49.3314 238.931 49.1607C238.492 48.9834 238.111 48.7372 237.788 48.422C237.465 48.1002 237.214 47.7259 237.033 47.2991C236.852 46.8723 236.762 46.4028 236.762 45.8906C236.762 45.3785 236.852 44.909 237.033 44.4822C237.214 44.0553 237.465 43.6843 237.788 43.3692C238.117 43.0474 238.501 42.8012 238.94 42.6304C239.379 42.4531 239.863 42.3645 240.392 42.3645C240.928 42.3645 241.419 42.4531 241.864 42.6304C242.309 42.8077 242.687 43.0737 242.997 43.4283L242.396 44.0389C242.119 43.7631 241.815 43.5629 241.486 43.4381C241.164 43.3068 240.812 43.2411 240.431 43.2411C240.044 43.2411 239.682 43.3068 239.347 43.4381C239.018 43.5694 238.73 43.7533 238.485 43.9897C238.246 44.2261 238.059 44.5084 237.924 44.8367C237.795 45.1585 237.73 45.5098 237.73 45.8906C237.73 46.2649 237.795 46.6162 237.924 46.9445C238.059 47.2663 238.246 47.5487 238.485 47.7916C238.73 48.028 239.018 48.2119 239.347 48.3432C239.676 48.4745 240.034 48.5402 240.421 48.5402C240.783 48.5402 241.128 48.4844 241.457 48.3727C241.793 48.2545 242.103 48.0608 242.387 47.7916L242.938 48.5402C242.603 48.8291 242.209 49.0491 241.757 49.2001C241.312 49.3446 240.851 49.4168 240.373 49.4168ZM242.009 48.4121V45.8512H242.938V48.5402L242.009 48.4121Z" fill="white"/>
<path fill-rule="evenodd" clip-rule="evenodd" d="M16.576 35.5891C18.5031 30.522 18.4073 26.9325 18.0863 25.5836C13.0995 28.5107 10.093 34.2353 10.9192 40.3234C12.0168 48.4118 19.4636 54.079 27.552 52.9813C35.6403 51.8837 41.3075 44.4369 40.2098 36.3486C40.0905 35.4693 39.8962 34.6186 39.6341 33.8022L39.2337 34.1292C37.7564 35.7093 36.7519 38.4658 36.4343 39.6466C35.1664 36.5124 37.2859 34.1149 38.5041 33.3079C34.455 33.1602 33.1259 34.4435 32.9675 35.1036C33.4354 31.2644 36.5666 31.4298 38.0738 31.9924C36.7299 30.5243 34.0382 30.5671 32.8603 30.7719C35.0887 28.796 36.8795 29.3332 37.9341 30.2408C35.338 26.28 30.9199 23.7104 26.0325 23.5615C28.6967 24.5449 29.521 26.9994 29.5506 28.5109C26.6911 25.3433 23.1011 24.8013 21.6636 24.9262C26.0461 27.2372 25.865 31.5656 25.2266 33.441C23.7142 28.6905 20.9846 26.5426 19.8088 26.0624C21.9022 31.644 18.5258 34.7392 16.576 35.5891Z" fill="url(#paint0_linear_58_375)"/>
<path fill-rule="evenodd" clip-rule="evenodd" d="M43.9233 33.806C43.7417 35.9859 43.2423 38.0755 42.4716 40.0284C42.0817 37.6654 41.2802 35.467 40.1511 33.4969C40.8032 33.3644 42.1185 33.3329 43.9233 33.806ZM43.9977 32.2801C43.9992 32.1721 44 32.0638 44 31.9554C44 31.0656 43.9472 30.1881 43.8445 29.3259C41.7115 30.3229 40.667 31.7197 40.3928 32.3796C41.8917 31.8019 43.0854 31.8894 43.9977 32.2801ZM43.7465 28.6046C42.1327 18.0447 33.0111 9.95544 22.0001 9.95544C9.84983 9.95544 0.00012207 19.8052 0.00012207 31.9554C0.00012207 36.4148 1.32693 40.5643 3.60731 44.0307C3.23028 35.1304 8.94972 27.1356 17.3501 24.5341L17.1475 24.2787C14.7362 21.97 10.5584 20.4907 8.7709 20.0396C13.4768 17.8167 17.1334 21.1219 18.3734 23.0523C18.5219 16.4836 16.561 14.3991 15.5621 14.178C21.3637 14.7294 21.1717 19.8119 20.3504 22.2842C22.5409 20.0277 22.4269 15.6686 22.0962 13.7712C26.0981 18.4112 23.4378 22.0453 21.6075 23.2824C23.4615 22.994 24.9106 23.1473 26.0331 23.5618C30.9195 23.711 35.3367 26.2799 37.9328 30.2396C38.2752 30.5341 38.5401 30.8677 38.7173 31.1671C38.2547 27.017 40.7914 25.9561 42.1176 25.9444C40.1005 27.815 39.6872 30.1891 39.7327 31.1424C40.8122 29.0954 42.4675 28.5771 43.7465 28.6046ZM10.9188 40.3237C10.0926 34.2354 13.0992 28.5107 18.0861 25.5836L18.0861 25.5835C13.0991 28.5106 10.0925 34.2354 10.9187 40.3236C11.3862 43.7682 13.0051 46.7737 15.3348 49.0045C13.0052 46.7737 11.3863 43.7682 10.9188 40.3237Z" fill="url(#paint1_linear_58_375)"/>
<path fill-rule="evenodd" clip-rule="evenodd" d="M24.2836 31.1182C23.6309 29.7124 21.6571 28.3825 20.2732 27.6318C20.1666 27.1325 20.0141 26.6095 19.809 26.0627C20.7636 26.4525 22.7425 27.9418 24.2626 31.0308C24.27 31.0607 24.277 31.0899 24.2836 31.1182ZM27.7854 26.9314C26.2695 25.7814 23.8974 25.4465 22.4695 25.4068C22.2198 25.2388 21.9516 25.0783 21.6637 24.9265C22.8111 24.8268 25.3294 25.1519 27.7533 26.8976L27.7854 26.9314ZM17.6322 25.8616C17.6325 25.8613 17.6328 25.861 17.6331 25.8608C14.9761 27.5524 12.927 30.0566 11.7879 32.9766C11.1559 34.6208 10.8096 36.4067 10.8096 38.2735C10.8096 46.4297 17.4215 53.0416 25.5777 53.0416C33.708 53.0416 40.3038 46.4716 40.3456 38.3511C40.3455 37.6903 40.301 37.0218 40.2096 36.3488C40.0903 35.4695 39.8959 34.6188 39.6339 33.8023L39.2337 34.1293C39.1611 34.2069 39.0897 34.2874 39.0194 34.3703C39.0908 34.9254 39.1276 35.4913 39.1276 36.0658C39.1276 43.3392 33.2314 49.2353 25.958 49.2353C18.6847 49.2353 12.7885 43.3392 12.7885 36.0658C12.7885 32.0027 14.6286 28.3693 17.5209 25.9535C17.6605 27.8802 17.7687 31.771 17.2178 33.7265C18.4752 29.6441 18.3665 26.7609 18.0864 25.5838C17.9331 25.6738 17.7817 25.7664 17.6322 25.8616ZM17.1279 34.0109L17.1344 33.9925L17.1289 34.0098L17.1279 34.0109ZM37.6665 30.031C37.5344 29.7751 37.3941 29.5241 37.246 29.2784C37.4873 29.5889 37.7166 29.9098 37.9333 30.2403C37.849 30.1678 37.7601 30.0977 37.6665 30.031Z" fill="url(#paint2_linear_58_375)" fill-opacity="0.4"/>
<path fill-rule="evenodd" clip-rule="evenodd" d="M29.7824 24.1676C28.5819 23.8094 27.3237 23.6011 26.0327 23.5617C25.1996 23.2541 24.1866 23.0904 22.9617 23.1443C23.9363 22.9814 24.9374 22.8966 25.9583 22.8966C31.05 22.8966 35.6491 25.0059 38.9294 28.3984C38.6898 29.1153 38.5897 30.0239 38.717 31.1668C38.54 30.8676 38.2754 30.5345 37.9335 30.2403C36.0232 27.3262 33.1265 25.1653 29.7824 24.1676ZM41.3999 26.7068C41.6129 26.4469 41.8511 26.1912 42.1173 25.9444C41.8487 25.9468 41.5304 25.9922 41.1974 26.0976C38.0504 17.0545 29.4509 10.5646 19.3356 10.5646C18.1538 10.5646 16.9927 10.6532 15.8586 10.8241C17.8078 10.2586 19.8685 9.95544 22 9.95544C33.011 9.95544 42.1326 18.0447 43.7464 28.6046C43.2032 28.5929 42.5921 28.6797 41.986 28.9402C41.8272 28.1814 41.6311 27.4363 41.3999 26.7068ZM40.4063 30.1312C40.1652 30.4171 39.9384 30.7518 39.7325 31.1421C39.7153 30.7788 39.7646 30.2093 39.9439 29.5399C40.102 29.7337 40.2562 29.9308 40.4063 30.1312ZM41.0548 32.1611C40.8411 32.2194 40.6204 32.2918 40.3927 32.3796C40.5082 32.1016 40.7604 31.6928 41.1731 31.2383C41.339 31.498 41.4985 31.7623 41.6513 32.0309C41.4588 32.0621 41.26 32.1051 41.0548 32.1611ZM42.413 31.9667C42.3709 31.4012 42.3086 30.8413 42.2266 30.2878C42.6758 29.9518 43.2123 29.6212 43.8444 29.3258C43.9471 30.188 43.9999 31.0655 43.9999 31.9554C43.9999 32.0638 43.9991 32.1721 43.9976 32.2802C43.5409 32.0846 43.0137 31.9649 42.413 31.9667ZM42.4003 33.5007C42.4263 33.558 42.452 33.6155 42.4773 33.6732C42.4773 33.6192 42.477 33.5652 42.4766 33.5113C42.9145 33.5734 43.3981 33.6684 43.9232 33.806C43.7416 35.9859 43.2422 38.0756 42.4715 40.0285C42.3641 39.3781 42.2257 38.7402 42.0577 38.1161C42.0577 38.116 42.0578 38.116 42.0578 38.116C41.6156 36.4725 40.9694 34.9247 40.1511 33.4969C40.2639 33.4739 40.3965 33.454 40.5482 33.4393C41.0031 33.3949 41.6285 33.3966 42.4003 33.5007Z" fill="url(#paint3_linear_58_375)"/>
<defs>
<linearGradient id="paint0_linear_58_375" x1="23.5769" y1="23.6907" x2="27.5517" y2="52.9813" gradientUnits="userSpaceOnUse">
<stop stop-color="#7AC3ED"/>
<stop offset="1" stop-color="#2C75BB"/>
</linearGradient>
<linearGradient id="paint1_linear_58_375" x1="7.84093" y1="16.1492" x2="45.3525" y2="36.501" gradientUnits="userSpaceOnUse">
<stop stop-color="#F9BC3B"/>
<stop offset="1" stop-color="#E48525"/>
</linearGradient>
<linearGradient id="paint2_linear_58_375" x1="18.5743" y1="25.9417" x2="28.0135" y2="49.2356" gradientUnits="userSpaceOnUse">
<stop stop-color="#3769B2"/>
<stop offset="1" stop-color="#3982C3"/>
</linearGradient>
<linearGradient id="paint3_linear_58_375" x1="26.4906" y1="12.6198" x2="48.7338" y2="31.9937" gradientUnits="userSpaceOnUse">
<stop stop-color="#F1A532"/>
<stop offset="1" stop-color="#DE7425"/>
</linearGradient>
</defs>
</svg>
