<svg width="69" height="69" viewBox="0 0 69 69" fill="none" xmlns="http://www.w3.org/2000/svg">
<circle cx="34.5" cy="34.5" r="34.5" fill="#F9BC3B"/>
<path d="M42.5104 30.5301L41.8863 29.7488L41.8863 29.7488L42.5104 30.5301ZM41.8863 29.7488L42.5104 30.5301V30.5301L41.8863 29.7488ZM37.2548 33.448L37.8761 34.2316L37.8789 34.2294L37.2548 33.448ZM37.2544 33.4484L36.6331 32.6648L36.6317 32.6659L37.2544 33.4484ZM32.3287 33.4485L31.7059 34.2308L31.706 34.231L32.3287 33.4485ZM32.3281 33.448L31.7028 34.2284L31.7053 34.2304L32.3281 33.448ZM27.7121 29.7493L27.0868 30.5296L27.0868 30.5296L27.7121 29.7493ZM27.0868 30.5296L27.7121 29.7493H27.7121L27.0868 30.5296ZM31.704 34.2294L31.0787 35.0097L31.0799 35.0106L31.704 34.2294ZM31.7053 34.2303L31.0811 35.0116L31.0824 35.0127L31.7053 34.2303ZM37.8777 34.2303L38.5005 35.0127L38.5008 35.0125L37.8777 34.2303ZM37.8783 34.2299L38.5014 35.012L38.5024 35.0112L37.8783 34.2299ZM36.7736 34.4489C37.1104 34.8866 37.7382 34.9685 38.176 34.6318C38.6137 34.2951 38.6956 33.6672 38.3589 33.2295L36.7736 34.4489ZM38.3589 33.2294C38.0221 32.7917 37.3943 32.7098 36.9565 33.0465C36.5188 33.3832 36.4369 34.0111 36.7736 34.4488L38.3589 33.2294ZM42.1983 46.1581H27.3994V48.1581H42.1983V46.1581ZM48.5977 39.7586C48.5977 42.1578 47.9173 43.707 46.8824 44.6679C45.8342 45.6413 44.2648 46.1581 42.1983 46.1581V48.1581C44.5714 48.1581 46.7018 47.5649 48.2433 46.1335C49.7983 44.6896 50.5977 42.539 50.5977 39.7586H48.5977ZM48.5977 29.3994V39.7586H50.5977V29.3994H48.5977ZM42.1983 23C44.2648 23 45.8342 23.5168 46.8824 24.4902C47.9173 25.4511 48.5977 27.0002 48.5977 29.3994H50.5977C50.5977 26.619 49.7983 24.4685 48.2433 23.0246C46.7018 21.5931 44.5714 21 42.1983 21V23ZM27.3994 23H42.1983V21H27.3994V23ZM21 29.3994C21 27.0002 21.6805 25.4511 22.7153 24.4902C23.7635 23.5168 25.3329 23 27.3994 23V21C25.0263 21 22.8959 21.5931 21.3544 23.0246C19.7994 24.4685 19 26.619 19 29.3994H21ZM21 39.7586V29.3994H19V39.7586H21ZM27.3994 46.1581C25.3329 46.1581 23.7635 45.6413 22.7153 44.6679C21.6805 43.707 21 42.1578 21 39.7586H19C19 42.539 19.7994 44.6896 21.3544 46.1335C22.8959 47.5649 25.0263 48.1581 27.3994 48.1581V46.1581ZM41.8076 30.4515C41.6353 30.2357 41.6705 29.9211 41.8863 29.7488L43.1344 31.3115C43.7817 30.7945 43.8874 29.8506 43.3704 29.2033L41.8076 30.4515ZM42.5104 30.5301C42.2946 30.7025 41.98 30.6673 41.8076 30.4515L43.3704 29.2033C42.8533 28.556 41.9095 28.4504 41.2622 28.9674L42.5104 30.5301ZM37.8789 34.2294L42.5104 30.5301L41.2622 28.9674L36.6308 32.6666L37.8789 34.2294ZM37.8757 34.2319L37.8761 34.2316L36.6336 32.6644L36.6331 32.6648L37.8757 34.2319ZM31.706 34.231C32.584 34.9295 33.711 35.2493 34.7916 35.2493C35.8722 35.2493 36.9992 34.9295 37.8771 34.2308L36.6317 32.6659C36.1677 33.0352 35.5028 33.2493 34.7915 33.2493C34.0803 33.2493 33.4154 33.0352 32.9514 32.666L31.706 34.231ZM31.7053 34.2304L31.7059 34.2308L32.9515 32.6661L32.9509 32.6656L31.7053 34.2304ZM27.0868 30.5296L31.7028 34.2284L32.9534 32.6676L28.3374 28.9689L27.0868 30.5296ZM27.7896 30.4521C27.617 30.6676 27.3023 30.7023 27.0868 30.5296L28.3374 28.9689C27.6909 28.4509 26.7469 28.555 26.2289 29.2015L27.7896 30.4521ZM27.7121 29.7493C27.9276 29.9219 27.9623 30.2366 27.7896 30.4521L26.2289 29.2015C25.7109 29.848 25.815 30.792 26.4615 31.31L27.7121 29.7493ZM32.3293 33.449L27.7121 29.7493L26.4615 31.31L31.0787 35.0097L32.3293 33.449ZM32.3295 33.4491L32.3282 33.4481L31.0799 35.0106L31.0811 35.0116L32.3295 33.4491ZM37.2548 33.448C35.9128 34.5164 33.6701 34.5164 32.3281 33.448L31.0824 35.0127C33.1535 36.6615 36.4295 36.6615 38.5005 35.0127L37.2548 33.448ZM37.2552 33.4477L37.2546 33.4482L38.5008 35.0125L38.5014 35.012L37.2552 33.4477ZM41.8863 29.7488L37.2542 33.4485L38.5024 35.0112L43.1344 31.3115L41.8863 29.7488ZM38.3589 33.2295L38.3589 33.2294L36.7736 34.4488L36.7736 34.4489L38.3589 33.2295Z" fill="white"/>
</svg>
