<svg width="69" height="69" viewBox="0 0 69 69" fill="none" xmlns="http://www.w3.org/2000/svg">
<circle cx="34.5" cy="34.5" r="34.5" fill="#F9BC3B"/>
<path d="M49 42.8963C49 43.4011 48.8878 43.9199 48.6495 44.4246C48.4111 44.9294 48.1027 45.4061 47.696 45.8548C47.009 46.6119 46.2519 47.1587 45.3966 47.5093C44.5553 47.8598 43.644 48.0421 42.6625 48.0421C41.2324 48.0421 39.7041 47.7056 38.0916 47.0185C36.4792 46.3315 34.8668 45.4061 33.2684 44.2424C31.656 43.0646 30.1277 41.7606 28.6695 40.3165C27.2253 38.8583 25.9214 37.33 24.7576 35.7316C23.6079 34.1332 22.6825 32.5348 22.0095 30.9504C21.3365 29.352 21 27.8237 21 26.3655C21 25.4121 21.1683 24.5008 21.5048 23.6595C21.8413 22.8042 22.3741 22.019 23.1172 21.318C24.0145 20.4347 24.996 20 26.0336 20C26.4261 20 26.8187 20.0841 27.1693 20.2524C27.5338 20.4206 27.8563 20.673 28.1087 21.0376L31.3615 25.6224C31.6139 25.973 31.7962 26.2954 31.9224 26.6039C32.0486 26.8983 32.1187 27.1928 32.1187 27.4592C32.1187 27.7957 32.0205 28.1322 31.8242 28.4547C31.642 28.7772 31.3756 29.1137 31.0391 29.4502L29.9735 30.5578C29.8192 30.7121 29.7491 30.8943 29.7491 31.1187C29.7491 31.2308 29.7631 31.329 29.7912 31.4412C29.8333 31.5533 29.8753 31.6375 29.9034 31.7216C30.1557 32.1843 30.5904 32.7872 31.2073 33.5163C31.8383 34.2454 32.5113 34.9885 33.2404 35.7316C33.9975 36.4747 34.7266 37.1617 35.4697 37.7927C36.1988 38.4096 36.8017 38.8302 37.2784 39.0826C37.3485 39.1107 37.4326 39.1527 37.5308 39.1948C37.643 39.2369 37.7551 39.2509 37.8813 39.2509C38.1197 39.2509 38.302 39.1668 38.4562 39.0125L39.5218 37.9609C39.8723 37.6104 40.2088 37.344 40.5313 37.1758C40.8538 36.9795 41.1763 36.8813 41.5268 36.8813C41.7932 36.8813 42.0736 36.9374 42.3821 37.0636C42.6905 37.1898 43.013 37.3721 43.3635 37.6104L48.0045 40.9054C48.3691 41.1577 48.6214 41.4522 48.7757 41.8027C48.9159 42.1532 49 42.5038 49 42.8963Z" stroke="white" stroke-width="2" stroke-miterlimit="10"/>
</svg>
