<svg width="21" height="21" viewBox="0 0 21 21" fill="none" xmlns="http://www.w3.org/2000/svg">
<path d="M20.7419 17.0745C20.7419 17.4484 20.6588 17.8327 20.4823 18.2066C20.3057 18.5806 20.0772 18.9337 19.776 19.2661C19.267 19.8269 18.7062 20.232 18.0726 20.4917C17.4494 20.7514 16.7743 20.8864 16.0472 20.8864C14.9878 20.8864 13.8557 20.6371 12.6612 20.1282C11.4667 19.6192 10.2723 18.9337 9.08823 18.0716C7.89378 17.1992 6.76164 16.2332 5.68144 15.1634C4.61163 14.0832 3.64568 12.9511 2.78359 11.767C1.9319 10.5829 1.24639 9.39885 0.747831 8.22517C0.249277 7.04111 0 5.90897 0 4.82877C0 4.12249 0.124638 3.44736 0.373916 2.82417C0.623193 2.19059 1.01788 1.60894 1.56837 1.08962C2.23311 0.435264 2.96017 0.113281 3.72877 0.113281C4.01959 0.113281 4.31042 0.175601 4.57008 0.300239C4.84013 0.424878 5.07902 0.611836 5.26598 0.881886L7.67566 4.27829C7.86262 4.53795 7.99764 4.77684 8.09112 5.00534C8.1846 5.22346 8.23653 5.44158 8.23653 5.63892C8.23653 5.8882 8.16383 6.13748 8.01841 6.37637C7.88339 6.61526 7.68604 6.86454 7.43677 7.11381L6.64739 7.93435C6.53314 8.0486 6.4812 8.18363 6.4812 8.34981C6.4812 8.43291 6.49159 8.50561 6.51237 8.5887C6.54353 8.6718 6.57468 8.73411 6.59546 8.79643C6.78242 9.13919 7.1044 9.58581 7.56141 10.1259C8.0288 10.666 8.52735 11.2165 9.06746 11.767C9.62833 12.3175 10.1684 12.8264 10.7189 13.2938C11.259 13.7508 11.7056 14.0624 12.0588 14.2494C12.1107 14.2701 12.173 14.3013 12.2457 14.3325C12.3288 14.3636 12.4119 14.374 12.5054 14.374C12.682 14.374 12.817 14.3117 12.9313 14.1974L13.7206 13.4184C13.9803 13.1588 14.2296 12.9614 14.4685 12.8368C14.7074 12.6914 14.9462 12.6187 15.2059 12.6187C15.4032 12.6187 15.611 12.6602 15.8395 12.7537C16.068 12.8472 16.3069 12.9822 16.5665 13.1588L20.0045 15.5996C20.2745 15.7866 20.4615 16.0047 20.5757 16.2644C20.6796 16.524 20.7419 16.7837 20.7419 17.0745Z" fill="white"/>
</svg>
