<svg width="69" height="69" viewBox="0 0 69 69" fill="none" xmlns="http://www.w3.org/2000/svg">
<circle cx="34.5" cy="34.5" r="34.5" fill="#04A7C8"/>
<path d="M18.4583 49.0835H50.5416" stroke="white" stroke-width="2" stroke-miterlimit="10" stroke-linecap="round" stroke-linejoin="round"/>
<path d="M45.8459 49.0975V42.5933" stroke="white" stroke-width="2" stroke-miterlimit="10" stroke-linecap="round" stroke-linejoin="round"/>
<path d="M45.8751 32.8813C44.0959 32.8813 42.6667 34.3105 42.6667 36.0897V39.4001C42.6667 41.1792 44.0959 42.6084 45.8751 42.6084C47.6543 42.6084 49.0835 41.1792 49.0835 39.4001V36.0897C49.0835 34.3105 47.6543 32.8813 45.8751 32.8813Z" stroke="white" stroke-width="2" stroke-miterlimit="10" stroke-linecap="round" stroke-linejoin="round"/>
<path d="M20.0627 49.0829V25.7934C20.0627 22.8621 21.5212 21.3892 24.4232 21.3892H33.5086C36.4107 21.3892 37.8544 22.8621 37.8544 25.7934V49.0829" stroke="white" stroke-width="2" stroke-miterlimit="10" stroke-linecap="round" stroke-linejoin="round"/>
<path d="M25.4585 29.0312H32.6773" stroke="white" stroke-width="2" stroke-miterlimit="10" stroke-linecap="round" stroke-linejoin="round"/>
<path d="M25.4585 34.5H32.6773" stroke="white" stroke-width="2" stroke-miterlimit="10" stroke-linecap="round" stroke-linejoin="round"/>
<path d="M29.0312 49.0835V43.6147" stroke="white" stroke-width="2" stroke-miterlimit="10" stroke-linecap="round" stroke-linejoin="round"/>
</svg>
