<svg width="23" height="21" viewBox="0 0 23 21" fill="none" xmlns="http://www.w3.org/2000/svg">
<path fill-rule="evenodd" clip-rule="evenodd" d="M2.30305 8.92927C8.20154 6.0021 12.1348 4.07234 14.1028 3.13997C19.7219 0.477868 20.8895 0.0154327 21.6505 0.000162811C21.8179 -0.00319563 22.1921 0.0440531 22.4345 0.26811C22.6392 0.4573 22.6955 0.712868 22.7225 0.892241C22.7494 1.07161 22.783 1.48023 22.7563 1.79951C22.4518 5.44372 21.1343 14.2873 20.464 18.3688C20.1803 20.0959 19.6219 20.675 19.0812 20.7317C17.9062 20.8548 17.0139 19.8472 15.8759 18.9975C14.0951 17.6678 13.089 16.8401 11.3605 15.5426C9.36277 14.0432 10.6578 13.219 11.7963 11.8722C12.0942 11.5197 17.2713 6.15604 17.3715 5.66948C17.384 5.60863 17.3956 5.38179 17.2773 5.26202C17.159 5.14224 16.9844 5.1832 16.8584 5.21578C16.6798 5.26195 13.8349 7.40373 8.32379 11.6411C7.51628 12.2727 6.78486 12.5804 6.12954 12.5643C5.4071 12.5465 4.01741 12.099 2.98432 11.7165C1.7172 11.2474 0.710109 10.9993 0.797804 10.2026C0.843481 9.78755 1.34523 9.36312 2.30305 8.92927Z" fill="white"/>
</svg>
