<svg width="22" height="21" viewBox="0 0 22 21" fill="none" xmlns="http://www.w3.org/2000/svg">
<path fill-rule="evenodd" clip-rule="evenodd" d="M1.51057 8.92927C7.40905 6.0021 11.3423 4.07234 13.3103 3.13997C18.9294 0.477868 20.097 0.0154327 20.858 0.000162811C21.0254 -0.00319563 21.3996 0.0440531 21.642 0.26811C21.8467 0.4573 21.9031 0.712868 21.93 0.892241C21.957 1.07161 21.9905 1.48023 21.9638 1.79951C21.6593 5.44372 20.3418 14.2873 19.6715 18.3688C19.3878 20.0959 18.8294 20.675 18.2887 20.7317C17.1137 20.8548 16.2215 19.8472 15.0834 18.9975C13.3026 17.6678 12.2966 16.8401 10.568 15.5426C8.57029 14.0432 9.86531 13.219 11.0038 11.8722C11.3017 11.5197 16.4788 6.15604 16.579 5.66948C16.5915 5.60863 16.6032 5.38179 16.4849 5.26202C16.3665 5.14224 16.1919 5.1832 16.0659 5.21578C15.8873 5.26195 13.0424 7.40373 7.53131 11.6411C6.7238 12.2727 5.99238 12.5804 5.33706 12.5643C4.61462 12.5465 3.22493 12.099 2.19184 11.7165C0.924715 11.2474 -0.0823713 10.9993 0.00532331 10.2026C0.0510001 9.78755 0.552749 9.36312 1.51057 8.92927Z" fill="#3982C3"/>
</svg>
