<svg width="69" height="69" viewBox="0 0 69 69" fill="none" xmlns="http://www.w3.org/2000/svg">
<circle cx="34.5" cy="34.5" r="34.5" fill="#7AC3ED"/>
<path fill-rule="evenodd" clip-rule="evenodd" d="M21.7892 33.5761C28.7756 30.1091 33.4342 27.8234 35.7652 26.7191C42.4206 23.566 43.8036 23.0183 44.705 23.0002C44.9032 22.9962 45.3465 23.0522 45.6336 23.3176C45.8761 23.5416 45.9428 23.8443 45.9747 24.0568C46.0066 24.2693 46.0464 24.7532 46.0148 25.1314C45.6541 29.4477 44.0935 39.9224 43.2996 44.7567C42.9637 46.8023 42.3022 47.4882 41.6618 47.5553C40.2701 47.7012 39.2133 46.5077 37.8654 45.5013C35.7561 43.9264 34.5645 42.946 32.5171 41.4093C30.151 39.6332 31.6848 38.6571 33.0333 37.0618C33.3862 36.6443 39.5181 30.2914 39.6368 29.7151C39.6516 29.6431 39.6654 29.3744 39.5253 29.2325C39.3851 29.0907 39.1783 29.1392 39.0291 29.1778C38.8175 29.2324 35.4479 31.7692 28.9204 36.7882C27.9639 37.5362 27.0976 37.9007 26.3214 37.8816C25.4657 37.8606 23.8197 37.3305 22.5961 36.8775C21.0953 36.3218 19.9024 36.028 20.0063 35.0843C20.0604 34.5927 20.6547 34.09 21.7892 33.5761Z" fill="white"/>
</svg>
