<svg width="19" height="20" viewBox="0 0 19 20" fill="none" xmlns="http://www.w3.org/2000/svg">
<path d="M6.3335 2.08398V4.45898" stroke="#EFA130" stroke-miterlimit="10" stroke-linecap="round" stroke-linejoin="round"/>
<path d="M12.6665 2.08398V4.45898" stroke="#EFA130" stroke-miterlimit="10" stroke-linecap="round" stroke-linejoin="round"/>
<path d="M2.771 7.69727H16.2293" stroke="#EFA130" stroke-miterlimit="10" stroke-linecap="round" stroke-linejoin="round"/>
<path d="M17.4168 15.5417C17.4168 16.1354 17.2506 16.6975 16.9577 17.1725C16.4114 18.0908 15.406 18.7083 14.2502 18.7083C13.4506 18.7083 12.7222 18.4154 12.1681 17.9167C11.9227 17.7108 11.7089 17.4575 11.5427 17.1725C11.2497 16.6975 11.0835 16.1354 11.0835 15.5417C11.0835 13.7921 12.5006 12.375 14.2502 12.375C15.2002 12.375 16.0472 12.7946 16.6252 13.4517C17.116 14.0137 17.4168 14.7421 17.4168 15.5417Z" stroke="#EFA130" stroke-miterlimit="10" stroke-linecap="round" stroke-linejoin="round"/>
<path d="M13.0151 15.5415L13.7989 16.3252L15.4851 14.7656" stroke="#EFA130" stroke-linecap="round" stroke-linejoin="round"/>
<path d="M16.625 7.22982V13.4523C16.0471 12.7952 15.2 12.3757 14.25 12.3757C12.5004 12.3757 11.0833 13.7927 11.0833 15.5423C11.0833 16.1361 11.2496 16.6981 11.5425 17.1731C11.7088 17.4581 11.9225 17.7115 12.1679 17.9173H6.33333C3.5625 17.9173 2.375 16.334 2.375 13.959V7.22982C2.375 4.85482 3.5625 3.27148 6.33333 3.27148H12.6667C15.4375 3.27148 16.625 4.85482 16.625 7.22982Z" stroke="#EFA130" stroke-miterlimit="10" stroke-linecap="round" stroke-linejoin="round"/>
<path d="M9.49647 11.347H9.50358" stroke="#EFA130" stroke-linecap="round" stroke-linejoin="round"/>
<path d="M6.56629 11.347H6.5734" stroke="#EFA130" stroke-linecap="round" stroke-linejoin="round"/>
<path d="M6.56629 13.722H6.5734" stroke="#EFA130" stroke-linecap="round" stroke-linejoin="round"/>
</svg>
