<svg width="22" height="24" viewBox="0 0 22 24" fill="none" xmlns="http://www.w3.org/2000/svg">
<path d="M19.6002 2.07744C19.0266 1.5669 16.5503 0.0429206 11.3836 0.0208456C11.3836 0.0208456 5.2654 -0.372893 2.29542 2.26206C0.642429 3.8607 0.0855578 6.23798 0.0245028 9.13904C-0.0365523 12.0401 -0.352891 17.5821 5.06462 19.0563C5.06462 19.0563 5.04331 23.1707 5.04085 23.5324C5.04085 23.7852 5.08183 23.9582 5.22934 23.9939C5.33547 24.0192 5.49446 23.9654 5.62968 23.8334C6.49593 22.9813 9.26922 19.7042 9.26922 19.7042C12.9903 19.9422 15.9509 19.2225 16.2692 19.1206C17.0199 18.8842 21.0803 18.5426 21.7675 13.1057C22.4776 7.50147 21.5065 3.67607 19.6002 2.07744Z" fill="#7360F2"/>
<path fill-rule="evenodd" clip-rule="evenodd" d="M12.0003 6.34769C12.0076 6.14539 12.1255 5.98995 12.2638 6.00051C12.7812 6.03999 13.2117 6.26909 13.5183 6.73279C13.8237 7.19472 13.9734 7.84003 13.9997 8.61503C14.0065 8.81735 13.9 8.9895 13.7617 8.99954C13.6234 9.00958 13.5057 8.8537 13.4988 8.65138C13.4763 7.98796 13.3519 7.53632 13.1578 7.24278C12.9649 6.95101 12.6705 6.76611 12.2377 6.73308C12.0994 6.72253 11.9931 6.54998 12.0003 6.34769Z" fill="white"/>
<path fill-rule="evenodd" clip-rule="evenodd" d="M11.0009 4.36437C11.0147 4.14788 11.1785 3.98522 11.3668 4.00107C12.8022 4.12186 13.9575 4.68581 14.7991 5.74213L14.7992 5.74228C15.6316 6.7882 16.0273 8.08932 15.9985 9.61547C15.9945 9.83248 15.8381 10.0046 15.6494 9.99991C15.4607 9.99521 15.311 9.81547 15.3151 9.59846C15.3404 8.25259 14.9962 7.15416 14.2949 6.27297C13.5957 5.39544 12.6183 4.89456 11.3169 4.78504C11.1286 4.7692 10.9871 4.58086 11.0009 4.36437Z" fill="white"/>
<path fill-rule="evenodd" clip-rule="evenodd" d="M10 3.30884C10.0014 3.13708 10.1681 2.99881 10.3723 3.00001C12.5177 3.01258 14.3312 3.61343 15.7873 4.8075C17.2555 6.01156 17.9816 7.65076 18 9.68663C18.0015 9.85839 17.8373 9.99868 17.6331 9.99999C17.4289 10.0013 17.2622 9.86312 17.2606 9.69136C17.2434 7.78366 16.5687 6.317 15.2712 5.2529C13.9614 4.17881 12.3352 3.63353 10.3671 3.622C10.1629 3.62081 9.99859 3.4806 10 3.30884Z" fill="white"/>
<path d="M11.819 13.4391C11.819 13.4391 12.2785 13.4779 12.5259 13.1731L13.0083 12.5663C13.241 12.2654 13.8026 12.0734 14.3524 12.3798C14.7645 12.6148 15.1646 12.8702 15.5511 13.1452C15.916 13.4135 16.6633 14.0371 16.6657 14.0371C17.0217 14.3376 17.1039 14.7789 16.8615 15.2442C16.8615 15.2469 16.8596 15.2516 16.8596 15.2539C16.5926 15.7166 16.2537 16.1339 15.8555 16.4901C15.8509 16.4924 15.8509 16.4947 15.8466 16.4971C15.5007 16.7861 15.1609 16.9504 14.8271 16.9899C14.778 16.9985 14.728 17.0016 14.6782 16.9992C14.531 17.0006 14.3846 16.9781 14.2446 16.9325L14.2338 16.9166C13.7196 16.7716 12.861 16.4086 11.4312 15.6199C10.6038 15.1689 9.81604 14.6486 9.07646 14.0646C8.70576 13.7721 8.35216 13.4585 8.01739 13.1254L7.98171 13.0898L7.94603 13.0541L7.91036 13.0184C7.89833 13.0068 7.8867 12.9948 7.87468 12.9827C7.5416 12.648 7.228 12.2944 6.93543 11.9238C6.35149 11.1843 5.83115 10.3968 5.37998 9.56964C4.5912 8.13956 4.22822 7.28182 4.08318 6.76687L4.06728 6.75602C4.02182 6.61606 3.99942 6.46964 4.00097 6.32249C3.99825 6.27268 4.00125 6.22272 4.00989 6.17359C4.05151 5.84037 4.21607 5.5003 4.50355 5.15338C4.50588 5.14912 4.50821 5.14912 4.51054 5.14447C4.86665 4.74635 5.28399 4.40758 5.74683 4.14093C5.74916 4.14093 5.75381 4.1386 5.75653 4.1386C6.22189 3.89625 6.6632 3.97846 6.96335 4.33249C6.96568 4.33481 7.5881 5.08204 7.85529 5.44692C8.13033 5.83381 8.38582 6.23422 8.6208 6.64667C8.92716 7.19613 8.7352 7.75878 8.43427 7.99066L7.82737 8.47304C7.52101 8.72043 7.56134 9.17993 7.56134 9.17993C7.56134 9.17993 8.46025 12.5818 11.819 13.4391Z" fill="white"/>
</svg>
