<svg width="21" height="21" viewBox="0 0 21 21" fill="none" xmlns="http://www.w3.org/2000/svg">
<path fill-rule="evenodd" clip-rule="evenodd" d="M17.8497 2.85627C18.7734 3.75735 19.5008 4.80295 20.0076 5.96756C20.5307 7.18317 20.8005 8.46679 20.7923 9.80141C20.7923 11.1275 20.5225 12.4197 19.9994 13.6268C19.4926 14.7914 18.7652 15.837 17.8415 16.7381C16.9179 17.6391 15.8471 18.3362 14.6538 18.8293C13.4195 19.3393 12.1117 19.5943 10.763 19.5943C9.31627 19.5943 7.9349 19.3053 6.63526 18.7272L2.28678 20.7419L3.10416 16.109C1.57566 14.3408 0.741943 12.1136 0.741943 9.79291C0.741943 8.46679 1.01169 7.17467 1.53482 5.96756C2.04159 4.80295 2.76905 3.75735 3.69269 2.85627C4.61633 1.95518 5.6871 1.25812 6.88048 0.765071C8.11472 0.255024 9.42253 0 10.7712 0C12.1199 0 13.4277 0.255024 14.6619 0.765071C15.8553 1.25812 16.9261 1.96368 17.8497 2.85627ZM13.8505 11.1867C14.078 11.2677 14.3981 11.3974 14.8361 11.608C14.9543 11.6664 15.0785 11.7154 15.2038 11.7649C15.4088 11.8458 15.6166 11.9279 15.8049 12.0536C15.9566 12.2481 15.9987 12.4101 15.8976 12.8395C13.9095 17.7816 4.13748 10.6115 5.76334 6.84414C6.03292 6.25271 6.68997 5.11845 7.83566 5.68558C8.01477 5.77171 8.08976 5.95441 8.1644 6.13624C8.2021 6.22808 8.23971 6.3197 8.29059 6.39854C8.40146 6.62195 8.52225 6.87717 8.62601 7.09641C8.68782 7.22701 8.74358 7.34484 8.78761 7.43558C8.80145 7.48382 8.82913 7.53718 8.85988 7.59644C8.97888 7.8258 9.14369 8.14345 8.72862 8.59414C8.69276 8.66025 8.61236 8.7437 8.52467 8.83471C8.3652 9.00023 8.18161 9.19079 8.19792 9.34761C8.33271 9.58256 8.95609 10.4576 9.29306 10.7654C10.0512 11.4703 11.02 12.1589 12.0646 12.3534C12.3111 12.2633 12.549 11.9429 12.7782 11.6341C12.9406 11.4153 13.0987 11.2024 13.2524 11.0814C13.3532 11.0052 13.6141 11.1007 13.7772 11.1604C13.8049 11.1706 13.8297 11.1797 13.8505 11.1867Z" fill="white"/>
</svg>
