<svg width="24" height="24" viewBox="0 0 24 24" fill="none" xmlns="http://www.w3.org/2000/svg">
<path d="M17.3105 17.6541C19.6644 17.6541 20.2528 16.3301 20.2528 14.7118V8.8271C20.2528 7.20882 19.6644 5.88477 17.3105 5.88477C14.9566 5.88477 14.3682 7.20882 14.3682 8.8271V14.7118C14.3682 16.3301 14.9566 17.6541 17.3105 17.6541Z" stroke="#EFA130" stroke-linecap="round" stroke-linejoin="round"/>
<path d="M7.15034 17.6541C4.79648 17.6541 4.20801 16.3301 4.20801 14.7118V8.8271C4.20801 7.20882 4.79648 5.88477 7.15034 5.88477C9.50421 5.88477 10.0927 7.20882 10.0927 8.8271V14.7118C10.0927 16.3301 9.50421 17.6541 7.15034 17.6541Z" stroke="#EFA130" stroke-linecap="round" stroke-linejoin="round"/>
<path d="M10.0933 11.7695H14.3695" stroke="#EFA130" stroke-linecap="round" stroke-linejoin="round"/>
<path d="M22.5288 14.2223V9.31836" stroke="#EFA130" stroke-linecap="round" stroke-linejoin="round"/>
<path d="M1.93262 14.2223V9.31836" stroke="#EFA130" stroke-linecap="round" stroke-linejoin="round"/>
</svg>
