<svg width="21" height="21" viewBox="0 0 21 21" fill="none" xmlns="http://www.w3.org/2000/svg">
<path fill-rule="evenodd" clip-rule="evenodd" d="M17.85 2.85627C18.7736 3.75735 19.5011 4.80295 20.0079 5.96756C20.531 7.18317 20.8007 8.46679 20.7925 9.80141C20.7925 11.1275 20.5228 12.4197 19.9997 13.6268C19.4929 14.7914 18.7654 15.837 17.8418 16.7381C16.9182 17.6391 15.8474 18.3362 14.654 18.8293C13.4198 19.3393 12.112 19.5943 10.7633 19.5943C9.31651 19.5943 7.93514 19.3053 6.63551 18.7272L2.28703 20.7419L3.10441 16.109C1.57591 14.3408 0.742188 12.1136 0.742188 9.79291C0.742188 8.46679 1.01194 7.17467 1.53506 5.96756C2.04184 4.80295 2.7693 3.75735 3.69294 2.85627C4.61658 1.95518 5.68735 1.25812 6.88072 0.765071C8.11496 0.255024 9.42278 0 10.7715 0C12.1201 0 13.4279 0.255024 14.6622 0.765071C15.8556 1.25812 16.9263 1.96368 17.85 2.85627ZM13.8508 11.1867C14.0782 11.2677 14.3983 11.3974 14.8364 11.608C14.9546 11.6664 15.0788 11.7154 15.204 11.7649C15.4091 11.8458 15.6169 11.9279 15.8052 12.0536C15.9568 12.2481 15.9989 12.4101 15.8978 12.8395C13.9097 17.7816 4.13772 10.6115 5.76359 6.84414C6.03316 6.25271 6.69021 5.11845 7.8359 5.68558C8.01501 5.77171 8.09001 5.95441 8.16465 6.13624C8.20235 6.22808 8.23995 6.3197 8.29084 6.39854C8.4017 6.62195 8.52249 6.87717 8.62625 7.09641C8.68806 7.22701 8.74383 7.34484 8.78786 7.43558C8.80169 7.48382 8.82938 7.53718 8.86012 7.59644C8.97912 7.8258 9.14393 8.14345 8.72887 8.59414C8.693 8.66025 8.61261 8.7437 8.52492 8.83471C8.36545 9.00023 8.18186 9.19079 8.19816 9.34761C8.33295 9.58256 8.95634 10.4576 9.2933 10.7654C10.0515 11.4703 11.0202 12.1589 12.0648 12.3534C12.3114 12.2633 12.5492 11.9429 12.7784 11.6341C12.9408 11.4153 13.0989 11.2024 13.2527 11.0814C13.3535 11.0052 13.6143 11.1007 13.7774 11.1604C13.8051 11.1706 13.83 11.1797 13.8508 11.1867Z" fill="#73D644"/>
</svg>
