<svg width="69" height="69" viewBox="0 0 69 69" fill="none" xmlns="http://www.w3.org/2000/svg">
<circle cx="34.5" cy="34.5" r="34.5" fill="#73D644"/>
<path fill-rule="evenodd" clip-rule="evenodd" d="M44.1409 24.6966C45.3363 25.8628 46.2778 27.216 46.9337 28.7232C47.6107 30.2965 47.9598 31.9577 47.9492 33.685C47.9492 35.4013 47.6001 37.0736 46.9231 38.6358C46.2672 40.143 45.3257 41.4963 44.1304 42.6624C42.935 43.8286 41.5492 44.7308 40.0047 45.3689C38.4074 46.029 36.7148 46.359 34.9693 46.359C33.0969 46.359 31.3091 45.985 29.6271 45.2369L23.9993 47.8443L25.0572 41.8483C23.079 39.56 22 36.6775 22 33.674C22 31.9577 22.3491 30.2855 23.0261 28.7232C23.682 27.216 24.6235 25.8628 25.8189 24.6966C27.0142 23.5304 28.4 22.6283 29.9445 21.9902C31.5419 21.3301 33.2344 21 34.9799 21C36.7254 21 38.4179 21.3301 40.0153 21.9902C41.5598 22.6283 42.9456 23.5414 44.1409 24.6966ZM38.9653 35.478C39.2596 35.5828 39.6739 35.7506 40.2408 36.0232C40.3938 36.0988 40.5545 36.1622 40.7166 36.2262C40.982 36.331 41.2509 36.4372 41.4946 36.5999C41.6909 36.8516 41.7454 37.0613 41.6146 37.617C39.0416 44.0131 26.3946 34.7335 28.4988 29.8578C28.8477 29.0924 29.698 27.6244 31.1808 28.3584C31.4126 28.4699 31.5096 28.7063 31.6062 28.9416C31.655 29.0605 31.7037 29.1791 31.7696 29.2811C31.9131 29.5702 32.0694 29.9006 32.2037 30.1843C32.2837 30.3533 32.3558 30.5058 32.4128 30.6232C32.4307 30.6857 32.4665 30.7547 32.5063 30.8314C32.6603 31.1283 32.8736 31.5394 32.3365 32.1226C32.29 32.2082 32.186 32.3162 32.0725 32.434C31.8661 32.6482 31.6285 32.8948 31.6496 33.0978C31.8241 33.4019 32.6309 34.5343 33.067 34.9327C34.0482 35.845 35.302 36.7362 36.6539 36.9879C36.9729 36.8713 37.2808 36.4566 37.5774 36.057C37.7876 35.7738 37.9922 35.4982 38.1912 35.3417C38.3216 35.2431 38.6593 35.3667 38.8703 35.4439C38.9062 35.4571 38.9384 35.4688 38.9653 35.478Z" fill="white"/>
</svg>
